<svg width="90" height="90" viewBox="0 0 90 90" fill="none" xmlns="http://www.w3.org/2000/svg">
<g clip-path="url(#clip0_77_1058)">
<path d="M52.2981 6.31299L52.4113 6.13596L52.8339 6.19623L58.1434 1.59717L58.3094 1.64237L57.3962 7.46558L57.8415 7.63886L57.7321 7.81589L55.6302 7.24335L55.7434 7.06632L56.4981 7.22829C56.5736 7.21934 56.6446 7.18782 56.7019 7.13789C56.7562 7.08665 56.7886 7.01651 56.7924 6.94203L57.5472 2.42206L53.5245 5.95893C53.4833 5.99679 53.4489 6.04137 53.4226 6.09076C53.4001 6.1382 53.3861 6.18918 53.3811 6.24143C53.3785 6.28663 53.3934 6.33112 53.4226 6.36573L54.1547 6.61056L54.0415 6.78759L52.2981 6.31299ZM54.5622 4.86661L54.7849 4.65567L57.4038 5.3751L57.2679 5.60487L54.5622 4.86661Z" fill="#723231"/>
<path d="M60.8529 9.19036C60.7993 9.17079 60.7505 9.14022 60.7096 9.10065C60.6686 9.06107 60.6364 9.01336 60.6151 8.96059C60.597 8.9029 60.5907 8.84218 60.5965 8.78201C60.6024 8.72184 60.6202 8.66345 60.6491 8.6103C60.7273 8.44927 60.829 8.30075 60.951 8.16961L62.7434 6.24108C62.8587 6.13283 62.9356 5.99003 62.9623 5.83429C62.97 5.77882 62.9574 5.72243 62.927 5.67542C62.8965 5.6284 62.8501 5.59389 62.7962 5.57816C62.6113 5.49906 62.3019 5.57816 61.8566 5.80039C61.3288 6.08158 60.8296 6.41335 60.3661 6.79102C59.8108 7.22778 59.2886 7.70492 58.8038 8.21857L58.2679 7.99258L60.6906 5.23163C60.7734 5.14941 60.8377 5.05055 60.8793 4.9416C60.8838 4.92676 60.8852 4.91114 60.8835 4.89572C60.8817 4.88031 60.8767 4.86542 60.869 4.852C60.8612 4.83857 60.8507 4.82688 60.8382 4.81767C60.8257 4.80846 60.8114 4.80193 60.7962 4.79846C60.717 4.76456 60.5774 4.79847 60.3736 4.9077C60.0475 5.09396 59.7325 5.29896 59.4302 5.52166L59.3208 5.38229C59.6143 5.16433 59.9192 4.96192 60.234 4.77587C60.4231 4.66088 60.6277 4.57337 60.8415 4.51597C60.9874 4.47715 61.1419 4.48505 61.283 4.53857C61.3614 4.56277 61.4286 4.61386 61.4728 4.6828C61.517 4.75175 61.5353 4.83409 61.5245 4.91523C61.4629 5.15713 61.3317 5.37578 61.1472 5.54426L60.0906 6.69308L60.151 6.73452C60.5471 6.38808 60.967 6.06964 61.4076 5.78155C61.7145 5.57298 62.0518 5.41291 62.4076 5.30696C62.6463 5.22687 62.9047 5.22687 63.1434 5.30696C63.2956 5.36339 63.421 5.47502 63.4944 5.61959C63.5534 5.7684 63.5534 5.93408 63.4944 6.08289C63.4213 6.28252 63.3054 6.46378 63.1547 6.61399L61.4264 8.4973C61.3404 8.57236 61.2754 8.6684 61.2378 8.77603C61.2309 8.80845 61.2369 8.84225 61.2545 8.87035C61.2721 8.89844 61.2999 8.91864 61.3321 8.92669C61.4113 8.96059 61.5547 8.9267 61.7585 8.8137C62.083 8.63066 62.3944 8.42552 62.6906 8.19974L62.8 8.3391C62.5104 8.55598 62.2094 8.75716 61.8981 8.94176C61.7074 9.06144 61.5002 9.1528 61.283 9.21296C61.1405 9.24731 60.991 9.23945 60.8529 9.19036Z" fill="#723231"/>
<path d="M63.083 10.2377C62.9469 10.1618 62.8285 10.0578 62.7358 9.93265C62.6525 9.8145 62.6065 9.67411 62.6038 9.52962C62.6069 9.36927 62.6511 9.21239 62.7321 9.07386C63.018 8.62488 63.4058 8.24939 63.8641 7.97776C64.3797 7.63577 64.9484 7.38123 65.5472 7.22444C65.9881 7.06512 66.4737 7.08267 66.9019 7.2734C67.1406 7.40128 67.3294 7.60557 67.4377 7.85346L68.8717 6.52761L68.1962 6.03041L68.3396 5.90234C68.5761 6.03292 68.8063 6.15847 69.0302 6.27901C69.2541 6.39954 69.4729 6.50124 69.6868 6.5841L65.3962 10.5579C65.3065 10.6279 65.2331 10.7166 65.1811 10.8178C65.1752 10.8326 65.1723 10.8485 65.1727 10.8644C65.1731 10.8803 65.1768 10.896 65.1835 10.9105C65.1902 10.925 65.1998 10.9379 65.2118 10.9485C65.2237 10.9591 65.2376 10.9672 65.2528 10.9722C65.3333 11.0174 65.4843 10.9948 65.7056 10.9044C65.9245 10.814 66.2566 10.6483 66.6943 10.411L66.7887 10.5617C66.4453 10.7575 66.1585 10.9082 65.9283 11.025C65.7187 11.1303 65.495 11.2052 65.2641 11.2472C65.0826 11.2858 64.8933 11.2605 64.7283 11.1756C64.6833 11.1538 64.6431 11.1232 64.6101 11.0857C64.577 11.0482 64.5518 11.0045 64.5358 10.9572C64.5219 10.902 64.519 10.8447 64.5274 10.7884C64.5358 10.7322 64.5554 10.6781 64.5849 10.6295C64.6802 10.4591 64.8085 10.3093 64.9623 10.1888L65.9849 9.30362L65.9358 9.25465C65.4033 9.61366 64.8372 9.9202 64.2453 10.1699C63.7434 10.3583 63.3358 10.3884 63.083 10.2377ZM63.4868 9.96655C63.6385 10.013 63.7981 10.0279 63.9558 10.0104C64.1135 9.99292 64.266 9.94339 64.4038 9.86485C64.8828 9.67077 65.3427 9.43243 65.7773 9.15295C66.2017 8.89404 66.61 8.60977 67 8.30169C67.0769 8.14478 67.0931 7.96502 67.0453 7.79696C67.0224 7.72232 66.9849 7.65295 66.9351 7.59282C66.8852 7.5327 66.8239 7.48303 66.7547 7.44667C66.5806 7.37868 66.3936 7.34984 66.2071 7.36221C66.0205 7.37458 65.839 7.42785 65.6755 7.51823C65.172 7.71994 64.7014 7.99542 64.2792 8.3356C63.9002 8.61065 63.5763 8.95435 63.3245 9.34881C63.2872 9.40322 63.2621 9.46509 63.251 9.53012C63.2399 9.59515 63.2431 9.6618 63.2604 9.72548C63.3036 9.83088 63.3842 9.9167 63.4868 9.96655Z" fill="#723231"/>
<path d="M68.7925 13.8689C68.6212 13.7367 68.4905 13.5592 68.4151 13.3566C68.3427 13.1637 68.3322 12.9531 68.3849 12.7539C68.4445 12.5294 68.5513 12.3202 68.6981 12.14C69.003 11.7709 69.3806 11.4684 69.8076 11.2511C70.2588 10.9997 70.7573 10.8445 71.2717 10.7953C71.4904 10.7649 71.713 10.7779 71.9267 10.8335C72.1404 10.889 72.341 10.9862 72.517 11.1192C72.6887 11.2494 72.8196 11.4258 72.8943 11.6277C72.9648 11.821 72.9753 12.031 72.9245 12.2304C72.8657 12.4552 72.7588 12.6646 72.6113 12.8443C72.306 13.213 71.9285 13.5155 71.5019 13.7333C71.0509 13.9857 70.5524 14.1422 70.0378 14.1928C69.5962 14.2513 69.1493 14.135 68.7925 13.8689ZM68.9396 13.6956C69.0917 13.7848 69.2631 13.8358 69.4393 13.8443C69.6154 13.8529 69.791 13.8186 69.951 13.7446C70.4395 13.5906 70.9034 13.3673 71.3283 13.0816C71.7096 12.8502 72.0522 12.5604 72.3434 12.2228C72.473 12.0783 72.557 11.8988 72.5849 11.7068C72.5866 11.624 72.567 11.5421 72.5281 11.4689C72.4891 11.3957 72.432 11.3337 72.3623 11.2887C72.2099 11.2005 72.0386 11.15 71.8626 11.1414C71.6866 11.1329 71.5112 11.1666 71.351 11.2398C70.8624 11.3937 70.3985 11.617 69.9736 11.9027C69.5948 12.1315 69.2547 12.4188 68.9661 12.7539C68.8341 12.9008 68.7476 13.0826 68.717 13.2775C68.7153 13.3604 68.7349 13.4423 68.7738 13.5155C68.8128 13.5886 68.8699 13.6507 68.9396 13.6956Z" fill="#723231"/>
<path d="M71.2604 15.9103C71.213 15.8704 71.174 15.8216 71.1455 15.7667C71.117 15.7117 71.0996 15.6517 71.0944 15.5901C71.0958 15.4637 71.1427 15.3421 71.2264 15.2473C71.3393 15.1124 71.4778 15.001 71.634 14.9196L75.6755 12.6597L76.1925 13.0363L71.9774 15.398C71.8757 15.4439 71.7922 15.522 71.7396 15.6202C71.7258 15.657 71.7246 15.6973 71.7362 15.7348C71.7478 15.7723 71.7716 15.8049 71.8038 15.8274C71.8716 15.87 71.9474 15.8983 72.0266 15.9106C72.1057 15.9229 72.1866 15.9189 72.2642 15.899C72.6378 15.8389 73.0072 15.7546 73.3698 15.6466L73.4378 15.8161C73.0904 15.9223 72.7377 16.0103 72.3812 16.0798C72.1555 16.1276 71.9234 16.1378 71.6944 16.1099C71.5328 16.0886 71.3816 16.019 71.2604 15.9103ZM73.9019 12.7124L74.1057 12.6069L75.9359 14.2944L75.7359 14.4074L73.9019 12.7124Z" fill="#723231"/>
<path d="M72.6189 16.9501L78.3208 14.3511L77.8378 13.6505L78.0151 13.5752C78.2076 13.7899 78.3925 13.982 78.5736 14.1553C78.7547 14.3285 78.9208 14.4905 79.0793 14.6336L76.2679 15.9256L74.7585 16.5659L74.7925 16.6186C75.3177 16.4684 75.8521 16.3526 76.3925 16.2721C76.7676 16.2146 77.1494 16.2146 77.5246 16.2721C77.7755 16.3018 78.0093 16.4145 78.1887 16.5923C78.3046 16.7081 78.3744 16.8621 78.3849 17.0254C78.3803 17.1854 78.3124 17.337 78.1963 17.4473C78.0426 17.5974 77.8586 17.7129 77.6566 17.7863L75.3019 18.7506C75.1923 18.7838 75.0926 18.8433 75.0113 18.9238C74.9893 18.9481 74.9771 18.9796 74.9771 19.0123C74.9771 19.0451 74.9893 19.0766 75.0113 19.1009C75.0717 19.1649 75.2151 19.1913 75.4491 19.18C75.8195 19.148 76.1875 19.0926 76.551 19.0142L76.5925 19.1913C76.1472 19.2741 75.7849 19.3306 75.5095 19.357C75.2894 19.3907 75.0654 19.3907 74.8453 19.357C74.6999 19.327 74.5678 19.2519 74.468 19.1423C74.4261 19.1038 74.3935 19.0564 74.3726 19.0036C74.3516 18.9507 74.343 18.8938 74.3472 18.8372C74.3554 18.7768 74.3757 18.7187 74.4068 18.6663C74.4379 18.6139 74.4792 18.5683 74.5283 18.5321C74.6661 18.4175 74.8216 18.3259 74.9887 18.2609L77.4302 17.2703C77.5835 17.2238 77.7165 17.1269 77.8076 16.9953C77.8381 16.9478 77.8507 16.891 77.8431 16.8351C77.8355 16.7792 77.8082 16.7278 77.7661 16.6902C77.6378 16.5508 77.3283 16.4868 76.834 16.4981C76.238 16.5244 75.6462 16.6115 75.0679 16.758C74.3738 16.921 73.6927 17.1351 73.0302 17.3983L72.6189 16.9501Z" fill="#723231"/>
<path d="M76.2604 21.3229C76.137 21.1625 76.0529 20.9755 76.0151 20.7768C75.9817 20.5899 76.004 20.3974 76.0793 20.2231C76.1696 20.0279 76.3102 19.8602 76.4868 19.7372C76.886 19.463 77.3365 19.2722 77.8114 19.176C78.3452 19.0417 78.8999 19.011 79.4453 19.0855C79.6753 19.1055 79.8988 19.1723 80.1019 19.2818C80.305 19.3913 80.4836 19.5411 80.6265 19.7221C80.7679 19.8976 80.8475 20.1147 80.8529 20.3398C80.8537 20.441 80.8293 20.5408 80.7818 20.6302C80.7344 20.7196 80.6655 20.7959 80.5812 20.8521C80.3967 20.9669 80.1851 21.0312 79.9679 21.0384C79.7506 21.0457 79.5352 20.9957 79.3434 20.8935C78.6748 20.5948 78.0651 20.179 77.5434 19.6656L77.6944 19.5187C78.0129 19.8325 78.3798 20.0933 78.7812 20.2909C79.0589 20.4323 79.364 20.5119 79.6755 20.5244C79.9003 20.5299 80.121 20.4639 80.3057 20.3361C80.3506 20.3066 80.3892 20.2684 80.419 20.2238C80.4488 20.1791 80.4693 20.1289 80.4793 20.0762C80.4857 20.0245 80.4813 19.972 80.4664 19.9221C80.4514 19.8722 80.4263 19.8259 80.3925 19.7861C80.2755 19.6613 80.1299 19.5667 79.9682 19.5103C79.8066 19.4539 79.6336 19.4374 79.4642 19.4622C78.9794 19.4757 78.4997 19.5633 78.0415 19.7221C77.6388 19.8446 77.2571 20.0274 76.9095 20.2645C76.7312 20.3746 76.5976 20.544 76.5321 20.7429C76.5137 20.8321 76.516 20.9243 76.5389 21.0125C76.5618 21.1006 76.6047 21.1823 76.6642 21.2514C76.7482 21.3561 76.8522 21.4433 76.97 21.508C77.0879 21.5726 77.2173 21.6134 77.351 21.628C77.7263 21.6833 78.1077 21.6833 78.4831 21.628L78.517 21.8088C78.0738 21.8916 77.6201 21.9018 77.1736 21.839C76.994 21.8204 76.8201 21.7651 76.663 21.6762C76.5058 21.5874 76.3688 21.4671 76.2604 21.3229Z" fill="#723231"/>
<path d="M81.3056 22.3135C81.4201 22.2927 81.5292 22.2491 81.6264 22.1854C81.6373 22.1745 81.646 22.1616 81.652 22.1474C81.6579 22.1332 81.661 22.1179 81.661 22.1025C81.661 22.0871 81.6579 22.0719 81.652 22.0577C81.646 22.0434 81.6373 22.0305 81.6264 22.0197C81.5811 21.9443 81.4453 21.8954 81.2113 21.8652C80.8351 21.8281 80.4571 21.8131 80.0792 21.82V21.643C80.443 21.6324 80.807 21.6412 81.1698 21.6694C81.3919 21.6833 81.6107 21.7303 81.8189 21.8087C81.9614 21.864 82.0838 21.9612 82.1698 22.0875C82.2265 22.1701 82.2507 22.2707 82.2377 22.37C82.2245 22.4254 82.1999 22.4774 82.1655 22.5228C82.1311 22.5682 82.0875 22.6059 82.0377 22.6336C81.8703 22.7363 81.6845 22.8054 81.4905 22.837L80.2377 23.1082L80.2604 23.176C80.7548 23.1156 81.2528 23.0892 81.7509 23.0969C82.0529 23.0977 82.353 23.1435 82.6415 23.2325C82.8221 23.2876 82.979 23.4017 83.0868 23.5565C83.1207 23.6118 83.1473 23.6713 83.166 23.7335L82.5094 23.9595C82.4999 23.8606 82.4676 23.7652 82.4151 23.6808C82.3474 23.5844 82.2598 23.5037 82.1583 23.4439C82.0568 23.3841 81.9436 23.3467 81.8264 23.3342C81.3918 23.277 80.9516 23.277 80.517 23.3342C79.9283 23.3832 79.0981 23.5 78.0226 23.677L77.7094 23.1798L81.3056 22.3135Z" fill="#723231"/>
<path d="M80.283 27.8281C80.1872 27.6407 80.1417 27.4318 80.151 27.2216C80.1587 27.0487 80.2283 26.8843 80.3472 26.7583C80.4782 26.6313 80.6458 26.5483 80.8264 26.521L81.1208 27.022C80.9032 27.0507 80.702 27.1531 80.551 27.312C80.4965 27.3832 80.4649 27.469 80.4602 27.5584C80.4555 27.6478 80.4779 27.7365 80.5245 27.813C80.5553 27.8875 80.6019 27.9544 80.6612 28.009C80.7205 28.0637 80.7911 28.1048 80.8679 28.1294C81.039 28.172 81.2199 28.1478 81.3736 28.0616C81.5322 27.9851 81.6765 27.8819 81.8 27.7565C81.9321 27.6247 82.0906 27.4439 82.283 27.2216C82.4478 27.0219 82.6229 26.8308 82.8076 26.6491C82.9394 26.5177 83.0925 26.4095 83.2604 26.3289C83.4361 26.2431 83.6311 26.2041 83.8264 26.2159C84.0209 26.2274 84.2087 26.2911 84.3698 26.4005C84.5418 26.5192 84.6786 26.6818 84.766 26.8713C84.8804 27.0918 84.9086 27.3469 84.8453 27.587C84.8126 27.6961 84.7545 27.796 84.6758 27.8784C84.5971 27.9609 84.5 28.0237 84.3925 28.0616L84.0906 27.587C84.255 27.537 84.4033 27.4448 84.5208 27.3196C84.5576 27.2636 84.5772 27.1982 84.5772 27.1312C84.5772 27.0643 84.5576 26.9988 84.5208 26.9429C84.4942 26.8752 84.453 26.8141 84.4002 26.764C84.3474 26.7139 84.2842 26.6759 84.2151 26.6529C84.0617 26.6219 83.9022 26.6473 83.7661 26.7244C83.6258 26.7944 83.4982 26.8873 83.3887 26.9994C83.2292 27.1624 83.078 27.3334 82.9359 27.5117C82.7283 27.764 82.5585 27.9599 82.4038 28.1068C82.261 28.249 82.0951 28.3662 81.9132 28.4533C81.7216 28.5452 81.5105 28.5892 81.2981 28.5814C81.0862 28.5728 80.8809 28.5049 80.7057 28.3855C80.5154 28.2427 80.369 28.0496 80.283 27.8281Z" fill="#723231"/>
<path d="M81.3396 30.1785C81.3154 30.1219 81.303 30.061 81.303 29.9995C81.303 29.938 81.3154 29.8772 81.3396 29.8206C81.394 29.7059 81.4896 29.6158 81.6076 29.5683C81.768 29.4962 81.9411 29.4566 82.117 29.4515L86.7321 29.169L87.0377 29.7265L82.2113 30.024C82.1008 30.0216 81.9923 30.0546 81.9019 30.1182C81.8728 30.1457 81.8537 30.1821 81.8476 30.2216C81.8414 30.2612 81.8486 30.3016 81.8679 30.3366C81.9094 30.4383 82.0377 30.525 82.2453 30.6003C82.6077 30.7095 82.9771 30.7938 83.351 30.8527V31.0335C82.9923 30.9799 82.6369 30.9057 82.2868 30.8112C82.0636 30.7567 81.8508 30.6664 81.6566 30.5438C81.5162 30.4571 81.4056 30.3296 81.3396 30.1785ZM85.1132 28.4458H85.3434L86.2528 30.7623H86.0264L85.1132 28.4458Z" fill="#723231"/>
<path d="M82.3887 33.0449C82.3185 32.8371 82.3093 32.6136 82.3623 32.4008C82.4141 32.2023 82.5261 32.0247 82.683 31.8923C82.8589 31.7406 83.0664 31.6299 83.2906 31.5684C83.7531 31.439 84.2376 31.4069 84.7132 31.4742C85.2268 31.5262 85.7241 31.6839 86.1736 31.9375C86.5697 32.141 86.8704 32.4911 87.0113 32.9131C87.0795 33.1212 87.0886 33.3441 87.0377 33.5572C86.9843 33.7549 86.8726 33.9321 86.717 34.0657C86.5397 34.2175 86.3309 34.3281 86.1056 34.3896C85.6454 34.5174 85.1637 34.5495 84.6906 34.4837C84.1755 34.4353 83.6765 34.2787 83.2264 34.0242C83.0291 33.924 82.8535 33.7859 82.7098 33.6179C82.566 33.4498 82.4569 33.2551 82.3887 33.0449ZM82.6075 32.9884C82.6868 33.2521 82.9547 33.4592 83.4075 33.6061C83.8967 33.7579 84.4048 33.8403 84.917 33.851C85.3622 33.8773 85.8089 33.8354 86.2415 33.7266C86.4305 33.6809 86.6022 33.5814 86.7358 33.4404C86.7835 33.3727 86.8136 33.2942 86.8235 33.2121C86.8334 33.1299 86.8227 33.0466 86.7924 32.9696C86.7094 32.7059 86.4453 32.4987 85.9924 32.3518C85.5033 32.2001 84.9952 32.1177 84.483 32.107C84.0402 32.0787 83.5957 32.1206 83.166 32.2313C82.9738 32.2745 82.799 32.3742 82.6641 32.5176C82.6149 32.5845 82.5837 32.6631 82.5738 32.7456C82.5639 32.828 82.5755 32.9117 82.6075 32.9884Z" fill="#723231"/>
<path d="M86.8981 36.0506C87.0114 36.0734 87.1282 36.0734 87.2415 36.0506C87.2713 36.0403 87.2959 36.0188 87.31 35.9906C87.3241 35.9625 87.3266 35.9299 87.317 35.8999C87.2981 35.8171 87.1887 35.7191 86.9811 35.6137C86.644 35.4512 86.2975 35.3091 85.9434 35.188L85.9962 35.0186C86.3411 35.1331 86.6799 35.2651 87.0113 35.414C87.2159 35.5041 87.4055 35.6247 87.5736 35.7719C87.6862 35.8717 87.7664 36.0029 87.8037 36.1485C87.8296 36.2457 87.8188 36.3488 87.7736 36.4386C87.7075 36.5321 87.6072 36.5957 87.4943 36.6156C87.3013 36.6544 87.1024 36.6544 86.9094 36.6156L85.6415 36.4386V36.5101C86.1267 36.6235 86.6034 36.7707 87.0679 36.9508C87.3531 37.0539 87.6214 37.1986 87.8641 37.3802C88.013 37.4949 88.1203 37.6549 88.1698 37.836C88.1773 37.8998 88.1773 37.9643 88.1698 38.0281H87.4754C87.498 37.9315 87.498 37.8309 87.4754 37.7343C87.443 37.6209 87.3874 37.5155 87.312 37.4248C87.2367 37.334 87.1433 37.2598 87.0377 37.207C86.6496 37.0044 86.2376 36.8513 85.8113 36.7512C85.2402 36.5955 84.4201 36.4185 83.3509 36.2201L83.2302 35.6438L86.8981 36.0506Z" fill="#723231"/>
<path d="M83.8113 39.1505C83.7994 39.0955 83.8 39.0385 83.8131 38.9838C83.8261 38.929 83.8513 38.8779 83.8868 38.8341C83.9715 38.7473 84.0862 38.6961 84.2075 38.691C84.3868 38.6738 84.5677 38.6853 84.7434 38.7249L87.4566 39.2823C87.5695 39.314 87.6877 39.3217 87.8037 39.3049C87.8344 39.2953 87.8601 39.2743 87.8756 39.2463C87.891 39.2182 87.8951 39.1852 87.8868 39.1543C87.8868 39.0676 87.7698 38.9622 87.5736 38.8416C87.247 38.6578 86.9106 38.4919 86.566 38.3444L86.6302 38.1787C86.9673 38.3179 87.2962 38.4763 87.6151 38.6533C87.8116 38.7513 87.9923 38.8782 88.1509 39.03C88.2602 39.1392 88.3316 39.2804 88.3547 39.433C88.3671 39.4877 88.3671 39.5446 88.3547 39.5993C88.3423 39.654 88.3178 39.7053 88.283 39.7494C88.199 39.8351 88.0859 39.8861 87.966 39.8925C87.7878 39.9061 87.6085 39.8935 87.4339 39.8549L84.7132 39.3012C84.602 39.2673 84.4845 39.2596 84.3698 39.2786C84.3056 39.2974 84.2792 39.3501 84.2905 39.4292C84.3019 39.5083 84.4075 39.6176 84.6075 39.7419C84.9317 39.9266 85.267 40.0913 85.6113 40.2353L85.5471 40.401C85.2083 40.2644 84.8781 40.1071 84.5585 39.9302C84.3612 39.8295 84.1785 39.7028 84.0151 39.5535C83.9086 39.4423 83.8377 39.302 83.8113 39.1505ZM89.117 39.6929C89.1078 39.6451 89.1088 39.5959 89.12 39.5485C89.1311 39.5011 89.1522 39.4566 89.1817 39.4178C89.2113 39.3791 89.2487 39.347 89.2915 39.3237C89.3343 39.3003 89.3815 39.2862 89.4302 39.2823C89.5621 39.2651 89.6956 39.3006 89.8015 39.381C89.9075 39.4614 89.9775 39.5802 89.9962 39.7117C90.0054 39.7596 90.0043 39.8088 89.9932 39.8562C89.982 39.9036 89.961 39.9481 89.9314 39.9868C89.9019 40.0256 89.8645 40.0576 89.8217 40.081C89.7789 40.1043 89.7316 40.1184 89.683 40.1223C89.551 40.1395 89.4176 40.104 89.3116 40.0237C89.2056 39.9433 89.1357 39.8244 89.117 39.6929Z" fill="#723231"/>
<path d="M84.1358 42.0581C84.1216 41.8576 84.1539 41.6565 84.2302 41.4705C84.3026 41.2951 84.4262 41.1455 84.5849 41.0411C84.7668 40.9251 84.9767 40.8601 85.1925 40.8528C85.6774 40.843 86.1596 40.9288 86.6113 41.1052C87.1316 41.2844 87.613 41.5604 88.0302 41.9188C88.2116 42.0608 88.3621 42.2383 88.4724 42.4403C88.5827 42.6424 88.6505 42.8648 88.6717 43.094C88.6933 43.3189 88.6417 43.5447 88.5245 43.738C88.4691 43.823 88.3938 43.8932 88.305 43.9425C88.2162 43.9917 88.1166 44.0185 88.0151 44.0205C87.7979 44.0148 87.5859 43.9527 87.4 43.8404C87.2141 43.7282 87.0607 43.5696 86.9547 43.3802C86.5578 42.7653 86.2753 42.0839 86.1208 41.3688L86.3245 41.3312C86.4205 41.766 86.5848 42.183 86.8113 42.5666C86.9668 42.8375 87.1808 43.0704 87.4377 43.2484C87.6229 43.3753 87.8433 43.4412 88.0679 43.4367C88.1216 43.4359 88.1745 43.4244 88.2237 43.4031C88.273 43.3818 88.3175 43.351 88.3547 43.3124C88.3885 43.2727 88.4136 43.2264 88.4286 43.1765C88.4435 43.1266 88.4479 43.0741 88.4415 43.0224C88.4115 42.8539 88.3414 42.6951 88.2369 42.5594C88.1325 42.4237 87.9969 42.315 87.8415 42.2427C87.4263 41.9928 86.9761 41.8061 86.5057 41.689C86.0998 41.5661 85.6768 41.5088 85.2528 41.5195C85.0453 41.5171 84.8435 41.5878 84.683 41.7191C84.6175 41.7828 84.568 41.861 84.5385 41.9474C84.509 42.0338 84.5003 42.126 84.5132 42.2163C84.5274 42.3504 84.568 42.4803 84.6328 42.5987C84.6976 42.717 84.7852 42.8213 84.8906 42.9056C85.1735 43.1509 85.4914 43.3527 85.834 43.5045L85.766 43.674C85.3539 43.5001 84.9719 43.2624 84.634 42.9696C84.4938 42.859 84.3774 42.7212 84.2918 42.5646C84.2062 42.408 84.1532 42.2357 84.1358 42.0581Z" fill="#723231"/>
<path d="M84.2453 45.03C84.2422 44.8194 84.2942 44.6117 84.3962 44.4273C84.4783 44.2762 84.6123 44.1598 84.7736 44.0996C84.9477 44.043 85.1353 44.043 85.3094 44.0996L85.3509 44.6797C85.1444 44.6082 84.9198 44.6082 84.7132 44.6797C84.6324 44.7186 84.5655 44.7815 84.5216 44.8596C84.4778 44.9378 84.459 45.0275 84.4679 45.1166C84.462 45.1971 84.4738 45.278 84.5025 45.3534C84.5312 45.4289 84.5761 45.4972 84.634 45.5536C84.7682 45.6674 84.9411 45.7254 85.117 45.7155C85.2931 45.717 85.468 45.6876 85.634 45.6289C85.8113 45.5686 86.034 45.482 86.3019 45.3652C86.5698 45.2485 86.8415 45.143 87.0302 45.0827C87.2059 45.0213 87.3912 44.992 87.5774 44.9961C87.7731 44.996 87.9655 45.0466 88.1359 45.143C88.3039 45.2392 88.4433 45.3783 88.5396 45.546C88.644 45.7293 88.695 45.938 88.6868 46.1487C88.6956 46.3983 88.6093 46.6419 88.4453 46.8304C88.3678 46.9139 88.2718 46.9782 88.165 47.018C88.0582 47.0579 87.9436 47.0724 87.8302 47.0602L87.7887 46.4802C87.9575 46.5053 88.1299 46.4884 88.2906 46.4312C88.3518 46.3979 88.4018 46.3472 88.4341 46.2855C88.4663 46.2238 88.4794 46.1538 88.4717 46.0846C88.4757 46.015 88.4646 45.9453 88.4392 45.8803C88.4138 45.8153 88.3747 45.7565 88.3245 45.708C88.2019 45.6101 88.0474 45.5605 87.8906 45.5686C87.7313 45.5689 87.5731 45.5956 87.4226 45.6477C87.2566 45.703 87.0453 45.7896 86.7887 45.9076C86.5426 46.0202 86.2907 46.1195 86.034 46.2052C85.8449 46.2712 85.6456 46.3031 85.4453 46.2993C85.2319 46.2991 85.0218 46.2461 84.834 46.1449C84.6482 46.0429 84.4941 45.8917 84.3887 45.708C84.2786 45.4997 84.229 45.2649 84.2453 45.03Z" fill="#723231"/>
<path d="M83.4603 53.9307L83.6339 54.0474L83.5509 54.4693L87.932 59.9799L87.8792 60.1456L82.0943 58.9667L81.8981 59.4036L81.7283 59.2868L82.3962 57.2189L82.5698 57.3357L82.3698 58.089C82.3766 58.1636 82.4055 58.2344 82.4528 58.2924C82.4766 58.3212 82.5058 58.345 82.5388 58.3625C82.5719 58.38 82.608 58.3907 82.6453 58.3941L87.1358 59.3659L83.7585 55.1586C83.7215 55.1184 83.6797 55.083 83.6339 55.0531C83.5868 55.0284 83.5357 55.0119 83.483 55.0042C83.4387 54.9991 83.3941 55.0112 83.3585 55.0381L83.0792 55.7575L82.9094 55.6407L83.4603 53.9307ZM84.8038 56.2584L85.0038 56.4844L84.166 59.0646L83.9396 58.9215L84.8038 56.2584Z" fill="#723231"/>
<path d="M80.1962 62.3229C80.2173 62.27 80.2495 62.2222 80.2904 62.1826C80.3314 62.143 80.3803 62.1125 80.434 62.0931C80.5533 62.064 80.6794 62.083 80.7849 62.1459C80.9415 62.2319 81.0851 62.3397 81.2113 62.466L83.0604 64.3494C83.1638 64.4692 83.3024 64.5536 83.4566 64.5904C83.5123 64.5996 83.5694 64.5888 83.6178 64.5598C83.6662 64.5308 83.7027 64.4856 83.7208 64.4322C83.8075 64.2552 83.7472 63.9426 83.5396 63.4906C83.2823 62.9503 82.974 62.4357 82.6189 61.9538C82.2059 61.3818 81.7519 60.8405 81.2604 60.3341L81.5094 59.8105L84.1509 62.3493C84.229 62.4346 84.3241 62.5026 84.4302 62.5489C84.4448 62.5543 84.4603 62.5566 84.4759 62.5559C84.4914 62.5552 84.5067 62.5514 84.5207 62.5448C84.5348 62.5381 84.5474 62.5287 84.5577 62.5171C84.5681 62.5055 84.5761 62.492 84.5811 62.4773C84.6189 62.3982 84.5811 62.2551 84.4906 62.0517C84.3194 61.7172 84.1291 61.3927 83.9208 61.0799L84.0642 60.9782C84.2683 61.2793 84.456 61.5911 84.6264 61.9123C84.736 62.1062 84.8149 62.3159 84.8604 62.5338C84.892 62.6803 84.8775 62.8329 84.8189 62.9708C84.7912 63.0457 84.7387 63.109 84.6701 63.1501C84.6015 63.1912 84.5208 63.2077 84.4415 63.1968C84.2027 63.1265 83.9892 62.9892 83.8264 62.8013L82.7283 61.6976L82.683 61.7541C83.0108 62.1657 83.3108 62.5986 83.5811 63.0499C83.7746 63.3651 83.9184 63.7081 84.0076 64.0669C84.0794 64.3157 84.0634 64.5817 83.9623 64.8202C83.9331 64.8945 83.889 64.9622 83.8327 65.0189C83.7765 65.0757 83.7092 65.1205 83.6351 65.1504C83.5609 65.1804 83.4814 65.195 83.4014 65.1932C83.3214 65.1915 83.2426 65.1735 83.1698 65.1403C82.9734 65.0535 82.7982 64.9249 82.6566 64.7637L80.8642 62.9595C80.7929 62.87 80.6992 62.8011 80.5925 62.7598C80.5609 62.7504 80.527 62.7539 80.498 62.7694C80.469 62.7849 80.4473 62.8113 80.4377 62.8427C80.4 62.9218 80.4377 63.0649 80.5321 63.2759C80.7025 63.6067 80.8941 63.9263 81.1057 64.2326L80.9585 64.3343C80.7132 63.9576 80.5245 63.6525 80.3962 63.4077C80.2857 63.2121 80.2043 63.0015 80.1547 62.7824C80.1174 62.6289 80.1319 62.4673 80.1962 62.3229Z" fill="#723231"/>
<path d="M79.0453 64.5001C79.1236 64.3664 79.2321 64.2529 79.3623 64.1686C79.4846 64.0899 79.6282 64.0505 79.7736 64.0556C79.9338 64.0633 80.089 64.1141 80.2227 64.2025C80.6602 64.5084 81.0185 64.9138 81.268 65.3852C81.5887 65.9146 81.8183 66.4939 81.9472 67.0991C82.0855 67.5446 82.0463 68.0263 81.8378 68.4437C81.6991 68.6767 81.4866 68.8569 81.234 68.956L82.4944 70.4438L83.0227 69.7922L83.1434 69.9391C83 70.1689 82.868 70.3949 82.7661 70.6133C82.6642 70.8318 82.5359 71.0427 82.4302 71.2537L78.6566 66.7977C78.5901 66.7037 78.5038 66.6253 78.4038 66.568C78.3434 66.5416 78.2906 66.568 78.2453 66.632C78.2 66.696 78.2151 66.8618 78.2944 67.0878C78.3736 67.3138 78.5246 67.649 78.7434 68.0972L78.5887 68.1838C78.4114 67.8335 78.268 67.5398 78.1661 67.3025C78.0684 67.0896 78.0024 66.8638 77.9698 66.632C77.9408 66.4506 77.974 66.2648 78.0642 66.1047C78.1155 66.0161 78.1973 65.9492 78.2944 65.9163C78.4084 65.898 78.5253 65.9222 78.6227 65.9841C78.7885 66.0897 78.9321 66.2266 79.0453 66.3872L79.8831 67.4493L79.9359 67.4004C79.5983 66.8541 79.3176 66.2748 79.0981 65.6715C79.0034 65.4922 78.9495 65.2942 78.9403 65.0917C78.9312 64.8892 78.9671 64.6871 79.0453 64.5001ZM79.2981 64.9144C79.2446 65.0636 79.2223 65.2221 79.2327 65.3802C79.2431 65.5383 79.2859 65.6926 79.3585 65.8335C79.53 66.3194 79.746 66.7884 80.0038 67.2347C80.2455 67.6693 80.5126 68.0894 80.8038 68.4927C80.9572 68.5758 81.1357 68.6 81.3057 68.5605C81.4622 68.5229 81.5977 68.4255 81.6831 68.2893C81.7568 68.1179 81.7929 67.9328 81.789 67.7464C81.7851 67.5599 81.7412 67.3764 81.6604 67.2083C81.4798 66.6971 81.2255 66.215 80.9057 65.777C80.6471 65.3871 80.3167 65.0496 79.9321 64.7826C79.8813 64.7449 79.8232 64.7181 79.7615 64.7038C79.6998 64.6896 79.6359 64.6882 79.5736 64.6997C79.4573 64.7327 79.3584 64.8098 79.2981 64.9144Z" fill="#723231"/>
<path d="M75.1472 70.0332C75.2837 69.8583 75.4687 69.7273 75.6792 69.6566C75.8744 69.5943 76.0841 69.5943 76.2792 69.6566C76.5022 69.7257 76.708 69.8413 76.883 69.9956C77.2375 70.3186 77.5236 70.7092 77.7245 71.1444C77.9496 71.6072 78.078 72.1108 78.1019 72.6247C78.1428 73.0676 78.0072 73.5088 77.7245 73.8526C77.5869 74.0247 77.4039 74.1551 77.1962 74.2293C76.9995 74.2895 76.7892 74.2895 76.5925 74.2293C76.3703 74.1608 76.1656 74.0452 75.9925 73.8903C75.6392 73.5743 75.3541 73.1898 75.1547 72.7603C74.9273 72.2984 74.7988 71.7942 74.7774 71.28C74.754 71.0581 74.7746 70.8338 74.838 70.6199C74.9015 70.406 75.0065 70.2066 75.1472 70.0332ZM75.3132 70.1877C75.2181 70.3356 75.1599 70.5041 75.1435 70.6791C75.1271 70.854 75.1529 71.0304 75.2189 71.1934C75.3507 71.6885 75.5541 72.1618 75.8226 72.5983C76.0365 72.9876 76.3103 73.3409 76.634 73.6454C76.7721 73.7821 76.9483 73.874 77.1396 73.9091C77.2223 73.9153 77.3051 73.8997 77.3799 73.864C77.4547 73.8284 77.5189 73.7738 77.566 73.7057C77.6632 73.5587 77.723 73.3903 77.74 73.215C77.7571 73.0397 77.7311 72.8629 77.6641 72.7C77.5295 72.2077 77.3276 71.7362 77.0641 71.2988C76.8493 70.9102 76.5756 70.557 76.2528 70.2517C76.1117 70.1144 75.9332 70.0214 75.7396 69.9843C75.657 69.9785 75.5743 69.9942 75.4995 70.0299C75.4248 70.0655 75.3606 70.1199 75.3132 70.1877Z" fill="#723231"/>
<path d="M73.0114 72.387C73.0519 72.3407 73.1017 72.3033 73.1576 72.2774C73.2135 72.2514 73.2742 72.2374 73.3359 72.2363C73.4628 72.2411 73.5836 72.292 73.6755 72.3795C73.8047 72.499 73.9098 72.6422 73.9849 72.8013L76.068 76.9446L75.6717 77.4418L73.4981 73.1365C73.4565 73.0331 73.3823 72.9458 73.2868 72.8879C73.2505 72.8717 73.2096 72.8685 73.1711 72.8788C73.1326 72.8891 73.0989 72.9123 73.0755 72.9445C73.0293 73.0099 72.9971 73.0841 72.9809 73.1625C72.9646 73.241 72.9647 73.3219 72.9812 73.4002C73.0262 73.7747 73.0956 74.1458 73.1887 74.5114L73.0151 74.5716C72.9225 74.2219 72.8494 73.8673 72.7963 73.5095C72.76 73.2811 72.76 73.0485 72.7963 72.8202C72.8209 72.6569 72.8961 72.5054 73.0114 72.387ZM76.0906 75.1555L76.1887 75.3664L74.4151 77.1104L74.3132 76.9107L76.0906 75.1555Z" fill="#723231"/>
<path d="M71.8906 73.7095L74.234 79.5101L74.9434 79.0619L75.0113 79.2389C74.7887 79.4235 74.5849 79.6156 74.4038 79.77C74.2226 79.9244 74.0528 80.1014 73.9057 80.2559L72.7396 77.3932L72.1623 75.8564L72.1094 75.8903C72.2368 76.4211 72.3289 76.9596 72.3849 77.5025C72.428 77.8789 72.4153 78.2597 72.3472 78.6325C72.3057 78.8833 72.1808 79.1129 71.9925 79.2841C71.8717 79.3941 71.7145 79.4558 71.5509 79.4574C71.392 79.4445 71.2444 79.3701 71.1396 79.2502C70.9943 79.0927 70.886 78.9048 70.8226 78.7003L69.966 76.3047C69.9396 76.1939 69.8835 76.0923 69.8038 76.0109C69.7799 75.9881 69.7481 75.9754 69.7151 75.9754C69.6821 75.9754 69.6503 75.9881 69.6264 76.0109C69.5623 76.0674 69.5283 76.2105 69.5283 76.444C69.5417 76.8153 69.5795 77.1852 69.6415 77.5514L69.4679 77.5853C69.4038 77.1371 69.3623 76.7717 69.3472 76.4968C69.3277 76.276 69.343 76.0536 69.3924 75.8376C69.4283 75.6904 69.5103 75.5585 69.6264 75.461C69.6668 75.4213 69.7155 75.3913 69.7691 75.373C69.8227 75.3548 69.8796 75.3488 69.9358 75.3555C69.9958 75.3662 70.053 75.3887 70.1042 75.4217C70.1554 75.4547 70.1995 75.4975 70.234 75.5476C70.3397 75.6928 70.4236 75.8527 70.483 76.0222L71.366 78.4969C71.4084 78.6468 71.4985 78.779 71.6226 78.8735C71.6687 78.9062 71.7249 78.9211 71.7811 78.9155C71.8373 78.91 71.8896 78.8844 71.9283 78.8434C72.0755 78.7229 72.1547 78.4178 72.166 77.9243C72.1634 77.3298 72.1027 76.7369 71.9849 76.154C71.8531 75.4536 71.6702 74.7637 71.4377 74.0899L71.8906 73.7095Z" fill="#723231"/>
<path d="M67.3471 77.1408C67.5126 77.0268 67.7026 76.9532 67.9019 76.9261C68.0913 76.9 68.2842 76.9301 68.4566 77.0128C68.6464 77.111 68.8066 77.2579 68.9207 77.4384C69.1784 77.8494 69.3504 78.308 69.4264 78.7869C69.5299 79.3256 69.5299 79.8791 69.4264 80.4178C69.3965 80.6465 69.3201 80.8666 69.202 81.0648C69.084 81.263 68.9266 81.435 68.7396 81.5704C68.5559 81.7016 68.3353 81.7715 68.1094 81.77C68.008 81.7659 67.9092 81.7369 67.8217 81.6857C67.7342 81.6344 67.6606 81.5625 67.6075 81.4762C67.4982 81.288 67.4406 81.0742 67.4406 80.8566C67.4406 80.639 67.4982 80.4253 67.6075 80.237C67.935 79.5838 68.3787 78.9954 68.917 78.5006L69.0566 78.655C68.7299 78.9596 68.4524 79.3129 68.2339 79.7021C68.0786 79.9734 67.9858 80.2758 67.9622 80.5873C67.946 80.8097 68.0015 81.0315 68.1207 81.2201C68.148 81.2668 68.1845 81.3076 68.2279 81.3399C68.2714 81.3723 68.3209 81.3956 68.3736 81.4084C68.4252 81.4169 68.478 81.4146 68.5287 81.4017C68.5793 81.3887 68.6267 81.3653 68.6679 81.3331C68.8005 81.2234 68.9041 81.083 68.9699 80.9241C69.0357 80.7652 69.0615 80.5927 69.0453 80.4216C69.0527 79.9385 68.9866 79.4572 68.849 78.994C68.7459 78.5822 68.5805 78.1884 68.3585 77.8264C68.2528 77.6518 68.0903 77.5188 67.8981 77.4497C67.8095 77.4274 67.717 77.4252 67.6275 77.4435C67.538 77.4617 67.4538 77.4999 67.3811 77.5552C67.1636 77.7161 67.0174 77.9552 66.9736 78.2219C66.9066 78.5947 66.8939 78.9753 66.9358 79.3519L66.7547 79.382C66.6933 78.935 66.7035 78.4811 66.7849 78.0373C66.8115 77.8572 66.8752 77.6846 66.972 77.5303C67.0688 77.376 67.1965 77.2434 67.3471 77.1408Z" fill="#723231"/>
<path d="M66.1396 82.1276C66.1526 82.2427 66.1913 82.3534 66.2528 82.4515C66.2618 82.4644 66.2733 82.4753 66.2866 82.4835C66.2999 82.4918 66.3147 82.4974 66.3302 82.4998C66.3457 82.5023 66.3615 82.5016 66.3768 82.4979C66.392 82.4941 66.4063 82.4873 66.4188 82.4779C66.4943 82.4365 66.5509 82.3009 66.5924 82.0711C66.6466 81.6967 66.6781 81.3193 66.6868 80.9411H66.8641C66.8584 81.3038 66.8332 81.6659 66.7886 82.0259C66.7642 82.2478 66.707 82.4649 66.6188 82.67C66.5574 82.8082 66.4546 82.924 66.3245 83.0015C66.2392 83.0551 66.137 83.0752 66.0377 83.058C65.9835 83.0417 65.9331 83.0146 65.8896 82.9784C65.8462 82.9421 65.8105 82.8974 65.7849 82.847C65.6884 82.6763 65.6268 82.4881 65.6037 82.2933L65.3924 81.0315L65.3207 81.0504C65.3549 81.552 65.3549 82.0554 65.3207 82.557C65.3066 82.8577 65.2481 83.1547 65.1471 83.4384C65.0826 83.6162 64.9604 83.7673 64.8 83.8678C64.7439 83.8987 64.6844 83.9227 64.6226 83.9394L64.4264 83.2727C64.5258 83.2697 64.6229 83.2425 64.7094 83.1936C64.8089 83.1298 64.8939 83.0459 64.9589 82.9473C65.0239 82.8487 65.0675 82.7375 65.0868 82.621C65.1644 82.1899 65.1859 81.7506 65.1509 81.314C65.1283 80.7264 65.049 79.8902 64.9207 78.813L65.4339 78.5229L66.1396 82.1276Z" fill="#723231"/>
<path d="M60.6491 80.8623C60.8408 80.7722 61.0534 80.7357 61.2642 80.7568C61.4366 80.7727 61.5974 80.8502 61.717 80.9753C61.8399 81.1098 61.9166 81.2801 61.9359 81.4612L61.4189 81.7324C61.3995 81.5146 61.3063 81.31 61.1547 81.1523C61.0869 81.0938 61.0027 81.0577 60.9135 81.0489C60.8243 81.0401 60.7346 81.0591 60.6566 81.1033C60.5804 81.1308 60.511 81.1742 60.453 81.2308C60.3951 81.2873 60.35 81.3556 60.3208 81.431C60.2733 81.5991 60.2895 81.7788 60.3661 81.9358C60.4351 82.0983 60.5321 82.2475 60.6529 82.3764C60.7812 82.512 60.951 82.6815 61.1661 82.8812C61.3812 83.0808 61.5849 83.2842 61.717 83.4311C61.841 83.5697 61.9416 83.7274 62.0151 83.8982C62.0927 84.0771 62.1226 84.2731 62.1019 84.4669C62.0818 84.6594 62.0101 84.8428 61.8944 84.998C61.768 85.1672 61.5968 85.2977 61.4 85.3747C61.1736 85.482 60.9151 85.5008 60.6755 85.4274C60.5688 85.3883 60.4723 85.3257 60.3932 85.2442C60.3141 85.1626 60.2546 85.0643 60.2189 84.9566L60.7359 84.6854C60.78 84.8502 60.8643 85.0016 60.9812 85.1261C61.035 85.166 61.0991 85.1897 61.166 85.1944C61.2328 85.199 61.2997 85.1845 61.3585 85.1525C61.4274 85.1287 61.4902 85.0901 61.5424 85.0393C61.5946 84.9885 61.6349 84.9268 61.6604 84.8587C61.6983 84.707 61.6809 84.5468 61.6113 84.4067C61.546 84.262 61.4581 84.1285 61.351 84.0112C61.234 83.8831 61.0717 83.7249 60.8604 83.5366C60.6491 83.3482 60.4264 83.1298 60.2868 82.9753C60.152 82.8271 60.0424 82.6579 59.9623 82.4744C59.8798 82.2782 59.8461 82.0649 59.8642 81.8529C59.8826 81.6426 59.9598 81.4416 60.0868 81.2728C60.2316 81.0857 60.4265 80.9433 60.6491 80.8623Z" fill="#723231"/>
<path d="M58.2528 81.8263C58.312 81.7992 58.3764 81.7852 58.4415 81.7852C58.5066 81.7852 58.571 81.7992 58.6302 81.8263C58.7416 81.8872 58.8274 81.9861 58.8717 82.105C58.9368 82.2691 58.9688 82.4445 58.966 82.621L59.0377 87.2427L58.4641 87.5214L58.3849 82.6964C58.3958 82.5849 58.3678 82.4732 58.3057 82.38C58.2786 82.3516 58.2433 82.3323 58.2047 82.3249C58.1662 82.3175 58.1263 82.3222 58.0906 82.3385C57.9849 82.3762 57.8943 82.5005 57.8075 82.7152C57.6825 83.0708 57.5817 83.4345 57.5056 83.8037L57.3245 83.7849C57.3952 83.4286 57.4859 83.0764 57.5962 82.7303C57.6618 82.5097 57.7624 82.3012 57.8943 82.1125C57.9832 81.9842 58.1079 81.8847 58.2528 81.8263ZM59.8151 85.6607V85.8905L57.4566 86.689V86.463L59.8151 85.6607Z" fill="#723231"/>
<path d="M55.3434 82.7152C55.5543 82.6548 55.7779 82.6548 55.9887 82.7152C56.1845 82.7767 56.3569 82.8963 56.483 83.058C56.6252 83.2418 56.7268 83.4536 56.7812 83.6795C56.8871 84.1472 56.8974 84.6315 56.8113 85.1033C56.7333 85.6127 56.5523 86.1009 56.2793 86.5384C56.0586 86.9245 55.6936 87.2076 55.2642 87.3256C55.0533 87.386 54.8297 87.386 54.6189 87.3256C54.4233 87.2636 54.251 87.1442 54.1245 86.9828C53.9816 86.798 53.8799 86.5848 53.8264 86.3576C53.7204 85.8924 53.7101 85.4105 53.7962 84.9413C53.87 84.4302 54.0499 83.9401 54.3245 83.5024C54.5486 83.1177 54.9141 82.8353 55.3434 82.7152ZM55.3887 82.9375C55.1208 83.0053 54.9019 83.2614 54.7359 83.6908C54.5588 84.1752 54.4533 84.6827 54.4227 85.1974C54.3735 85.64 54.3951 86.0875 54.4868 86.5233C54.5232 86.713 54.6136 86.8882 54.7472 87.028C54.8121 87.0796 54.8891 87.114 54.9709 87.1278C55.0528 87.1416 55.1368 87.1345 55.2151 87.1071C55.4868 87.0393 55.7019 86.7832 55.8717 86.3538C56.0466 85.8688 56.152 85.3616 56.1849 84.8471C56.2342 84.4071 56.2126 83.962 56.1208 83.5288C56.0864 83.3354 55.9943 83.1569 55.8566 83.0165C55.7905 82.9671 55.7126 82.9355 55.6306 82.925C55.5486 82.9144 55.4653 82.9252 55.3887 82.9563V82.9375Z" fill="#723231"/>
<path d="M52.1321 87.077C52.1076 87.19 52.1076 87.3069 52.1321 87.4198C52.1364 87.4347 52.1437 87.4487 52.1534 87.4607C52.1632 87.4728 52.1753 87.4829 52.189 87.4902C52.2027 87.4976 52.2178 87.5022 52.2333 87.5037C52.2488 87.5051 52.2644 87.5035 52.2793 87.4989C52.3623 87.4989 52.4642 87.3784 52.5812 87.1787C52.7596 86.85 52.9172 86.5103 53.0529 86.1618L53.2227 86.222C53.0927 86.5614 52.944 86.8934 52.7774 87.2164C52.6792 87.416 52.552 87.6 52.4 87.7626C52.298 87.8695 52.1668 87.9442 52.0227 87.9773C51.9235 87.9946 51.8213 87.9787 51.7321 87.9321C51.643 87.8611 51.5849 87.7586 51.5698 87.6458C51.5371 87.4517 51.5448 87.253 51.5925 87.062L51.8264 85.8039H51.7547C51.6196 86.2836 51.4507 86.7531 51.2491 87.2089C51.1312 87.4816 50.9735 87.7355 50.7812 87.9622C50.6607 88.1071 50.4943 88.2068 50.3095 88.2447C50.2457 88.2541 50.1808 88.2541 50.117 88.2447L50.1623 87.5516C50.2574 87.5815 50.3581 87.5892 50.4566 87.5742C50.5716 87.5481 50.6799 87.498 50.7741 87.4273C50.8684 87.3565 50.9467 87.2667 51.0038 87.1637C51.2263 86.787 51.3988 86.3831 51.517 85.9621C51.6981 85.3996 51.9132 84.5898 52.1623 83.5326L52.7434 83.4385L52.1321 87.077Z" fill="#723231"/>
<path d="M49.1698 83.8602C49.2252 83.8505 49.282 83.8532 49.3362 83.8682C49.3904 83.8832 49.4406 83.9101 49.483 83.9469C49.5667 84.0357 49.6138 84.1527 49.6151 84.2746C49.6199 84.4535 49.5995 84.6323 49.5547 84.8057L48.8755 87.4875C48.8365 87.5973 48.8236 87.7146 48.8377 87.8303C48.8413 87.846 48.8479 87.8608 48.8573 87.8738C48.8666 87.8869 48.8785 87.898 48.8922 87.9064C48.9059 87.9148 48.9212 87.9204 48.9371 87.9229C48.953 87.9253 48.9693 87.9246 48.9849 87.9207C49.0717 87.9207 49.1811 87.8114 49.3094 87.6231C49.511 87.3071 49.6925 86.9787 49.8528 86.64L50.0151 86.7116C49.8624 87.0431 49.6897 87.3651 49.4981 87.6758C49.3821 87.8657 49.2413 88.0393 49.0792 88.1919C48.9642 88.2938 48.8207 88.3582 48.6679 88.3764C48.6123 88.3857 48.5552 88.3824 48.501 88.3667C48.4468 88.3511 48.3968 88.3235 48.3547 88.286C48.2732 88.1991 48.2274 88.0849 48.2264 87.9659C48.2198 87.7881 48.2402 87.6103 48.2868 87.4385L48.966 84.7492C49.0022 84.6401 49.0151 84.5246 49.0038 84.4102C49.0038 84.3424 48.9358 84.316 48.8566 84.3235C48.7773 84.3311 48.6604 84.429 48.5283 84.6211C48.3298 84.9383 48.1496 85.2665 47.9887 85.6042L47.8226 85.5289C47.9779 85.1979 48.1518 84.876 48.3434 84.5646C48.455 84.3717 48.595 84.1965 48.7585 84.0448C48.8735 83.9429 49.017 83.8785 49.1698 83.8602ZM48.3887 89.1335C48.4868 89.1216 48.5857 89.1487 48.6641 89.2089C48.7008 89.241 48.7305 89.2803 48.7513 89.3244C48.7721 89.3684 48.7835 89.4163 48.7849 89.465C48.7949 89.5322 48.7899 89.6008 48.7703 89.6659C48.7507 89.731 48.7171 89.791 48.6717 89.8417C48.6302 89.8931 48.5787 89.9356 48.5204 89.9667C48.462 89.9978 48.398 90.0167 48.3321 90.0225C48.2339 90.0343 48.135 90.0073 48.0566 89.9471C48.0199 89.915 47.9902 89.8757 47.9695 89.8316C47.9487 89.7876 47.9372 89.7397 47.9358 89.691C47.9259 89.6238 47.9308 89.5552 47.9504 89.4901C47.97 89.425 48.0036 89.365 48.049 89.3143C48.0898 89.2611 48.1409 89.2167 48.1992 89.1837C48.2576 89.1507 48.322 89.1298 48.3887 89.1222V89.1335Z" fill="#723231"/>
<path d="M46.2302 84.0523C46.4307 84.0466 46.6297 84.0879 46.8113 84.1728C46.9846 84.2537 47.1293 84.385 47.2264 84.5495C47.3341 84.736 47.3889 84.9482 47.3849 85.1634C47.3744 85.6478 47.2679 86.1253 47.0717 86.5684C46.8683 87.078 46.57 87.5445 46.1925 87.9432C46.0424 88.1177 45.8582 88.2598 45.6512 88.3608C45.4443 88.4619 45.2188 88.5197 44.9887 88.5308C44.7629 88.5437 44.539 88.4829 44.351 88.3575C44.2705 88.3001 44.2049 88.2244 44.1596 88.1366C44.1144 88.0488 44.0907 87.9515 44.0906 87.8528C44.1046 87.6359 44.1755 87.4264 44.296 87.2453C44.4165 87.0642 44.5825 86.9178 44.7774 86.8208C45.4097 86.4492 46.1037 86.194 46.8264 86.0674L46.8566 86.2746C46.4166 86.3511 45.9913 86.496 45.5962 86.704C45.319 86.8482 45.0768 87.0513 44.8868 87.2991C44.7499 87.4763 44.6744 87.6931 44.6717 87.9169C44.6716 87.9683 44.6821 88.0192 44.7024 88.0664C44.7228 88.1136 44.7526 88.1562 44.7901 88.1915C44.8276 88.2268 44.8719 88.2541 44.9203 88.2716C44.9688 88.2891 45.0203 88.2966 45.0717 88.2935C45.2417 88.272 45.4039 88.2093 45.544 88.1108C45.6841 88.0123 45.7979 87.8811 45.8755 87.7285C46.145 87.3261 46.3524 86.8855 46.4906 86.4215C46.6322 86.0219 46.7086 85.6023 46.717 85.1785C46.7268 84.9723 46.6655 84.7689 46.5434 84.6022C46.482 84.5346 46.4058 84.482 46.3207 84.4487C46.2356 84.4154 46.1439 84.4022 46.0528 84.4101C45.7821 84.426 45.5285 84.5478 45.3472 84.7491C45.0879 85.0207 44.8705 85.3291 44.7019 85.6644L44.5359 85.5891C44.7265 85.182 44.9813 84.8081 45.2906 84.4817C45.4105 84.3511 45.5555 84.2458 45.7168 84.172C45.8782 84.0983 46.0528 84.0576 46.2302 84.0523Z" fill="#723231"/>
<path d="M43.2528 84.0261C43.4648 84.0321 43.6716 84.0931 43.8528 84.2031C44.0002 84.2936 44.11 84.434 44.1623 84.5986C44.2185 84.7712 44.2185 84.9571 44.1623 85.1297L43.5774 85.1485C43.6504 84.9426 43.6504 84.7179 43.5774 84.512C43.5419 84.4297 43.482 84.3603 43.4057 84.3131C43.3295 84.266 43.2405 84.2433 43.1509 84.2483C43.0705 84.2391 42.989 84.2475 42.9121 84.2728C42.8352 84.2982 42.7648 84.34 42.7056 84.3952C42.5881 84.5256 42.5223 84.6944 42.5207 84.8698C42.5145 85.0456 42.5374 85.2213 42.5887 85.3896C42.6415 85.5704 42.7207 85.7964 42.8264 86.0676C42.9396 86.3689 43.0264 86.6137 43.0792 86.8021C43.1285 86.981 43.1489 87.1667 43.1396 87.352C43.1315 87.5469 43.073 87.7363 42.9698 87.9019C42.865 88.0628 42.7191 88.1929 42.5472 88.2786C42.3598 88.3744 42.1494 88.4161 41.9396 88.3991C41.6885 88.3992 41.4469 88.3035 41.2641 88.1317C41.185 88.0496 41.1256 87.9507 41.0903 87.8424C41.055 87.7341 41.0448 87.6193 41.0604 87.5064L41.6453 87.4876C41.6109 87.6554 41.62 87.8291 41.6717 87.9923C41.7023 88.055 41.751 88.1071 41.8115 88.142C41.872 88.1769 41.9416 88.193 42.0113 88.1882C42.0833 88.1967 42.1562 88.1897 42.2253 88.1676C42.2943 88.1455 42.3577 88.1088 42.4113 88.0601C42.5127 87.9401 42.5676 87.7878 42.566 87.6307C42.5741 87.473 42.555 87.315 42.5094 87.1637C42.4604 86.9942 42.3811 86.787 42.2755 86.5196C42.1698 86.2521 42.0641 85.9659 42.0075 85.7663C41.9518 85.5731 41.9288 85.3719 41.9396 85.1711C41.9488 84.9595 42.0111 84.7536 42.1207 84.5722C42.2299 84.3904 42.3882 84.2429 42.5773 84.1466C42.7871 84.045 43.0208 84.0033 43.2528 84.0261Z" fill="#723231"/>
<path d="M36.3434 83.3329L36.2264 83.5062L35.8038 83.4271L30.3132 87.8529L30.1472 87.8039L31.2792 82.0221L30.8415 81.8262L30.9585 81.6567L33.034 82.3121L32.917 82.4854L32.1623 82.2895C32.0875 82.2987 32.0169 82.3287 31.9585 82.3762C31.9039 82.4254 31.8679 82.4919 31.8566 82.5645L30.9132 87.0581L35.1057 83.6681C35.1468 83.6307 35.1824 83.5876 35.2113 83.5401C35.2364 83.4947 35.2518 83.4447 35.2566 83.3932C35.2598 83.3712 35.2584 83.3489 35.2525 83.3275C35.2467 83.3061 35.2365 83.2862 35.2226 83.2689L34.5019 82.9939L34.6189 82.8206L36.3434 83.3329ZM34.0189 84.6889L33.7924 84.8885L31.2 84.0862L31.3472 83.8602L34.0189 84.6889Z" fill="#723231"/>
<path d="M27.9132 80.124C27.9671 80.1435 28.0159 80.175 28.0558 80.2162C28.0957 80.2573 28.1256 80.3069 28.1434 80.3613C28.1741 80.48 28.1565 80.6059 28.0944 80.7116C28.0108 80.8708 27.9025 81.0157 27.7736 81.141L25.9095 82.9942C25.7927 83.0919 25.7095 83.2236 25.6717 83.3709C25.663 83.4269 25.6741 83.4841 25.703 83.5329C25.7319 83.5817 25.7769 83.6189 25.8302 83.6383C26.0076 83.7212 26.3245 83.6571 26.7736 83.45C27.3136 83.1907 27.8267 82.879 28.3057 82.5196C28.8785 82.1059 29.4196 81.6501 29.9245 81.1561L30.4491 81.4009L27.9208 84.0677C27.8345 84.1449 27.7662 84.2401 27.7208 84.3464C27.7111 84.3764 27.7137 84.409 27.7278 84.4371C27.7419 84.4653 27.7664 84.4868 27.7962 84.4971C27.8755 84.531 28.0151 84.4971 28.2227 84.4029C28.5565 84.2291 28.8802 84.0367 29.1925 83.8266L29.2944 83.9698C28.9926 84.1755 28.6802 84.3654 28.3585 84.5385C28.165 84.6475 27.9565 84.7275 27.7396 84.7758C27.5929 84.8074 27.4401 84.7929 27.3019 84.7344C27.2251 84.7093 27.1599 84.6574 27.1183 84.5882C27.0767 84.5191 27.0615 84.4372 27.0755 84.3577C27.139 84.1198 27.27 83.9053 27.4528 83.74L28.5547 82.6364L28.4981 82.5912C28.0879 82.9217 27.6554 83.2237 27.2038 83.4952C26.8888 83.6915 26.545 83.8376 26.1849 83.9283C25.9362 84.0031 25.6692 83.9885 25.4302 83.8869C25.2808 83.8259 25.1606 83.7099 25.0944 83.563C25.0341 83.4144 25.0341 83.2483 25.0944 83.0997C25.1749 82.9037 25.2972 82.7276 25.4528 82.5837L27.2528 80.7832C27.3432 80.7129 27.4125 80.6191 27.4528 80.512C27.4611 80.4801 27.4567 80.4462 27.4405 80.4174C27.4243 80.3886 27.3977 80.3672 27.3661 80.3576C27.2868 80.3237 27.1434 80.3576 26.9359 80.4555C26.6037 80.6258 26.2835 80.8183 25.9774 81.0318L25.8755 80.8887C26.2528 80.6401 26.5547 80.4517 26.8 80.3199C26.9959 80.2086 27.2069 80.1262 27.4264 80.0751C27.5894 80.0339 27.7617 80.0513 27.9132 80.124Z" fill="#723231"/>
<path d="M25.7245 78.9862C25.8568 79.0665 25.9701 79.1745 26.0566 79.3026C26.1376 79.4225 26.1786 79.5649 26.1736 79.7094C26.1692 79.8705 26.1195 80.0272 26.0302 80.1614C25.7274 80.6005 25.3237 80.9609 24.8528 81.2123C24.3224 81.5321 23.744 81.7648 23.1396 81.9016C22.6926 82.0392 22.21 82.0028 21.7887 81.7999C21.5544 81.6626 21.3735 81.4502 21.2755 81.1972L19.7887 82.4628L20.4453 82.9864L20.2981 83.1107C20.0679 82.9676 19.8415 82.8395 19.6226 82.734C19.4038 82.6286 19.1887 82.508 18.9774 82.4063L23.4226 78.6058C23.5141 78.5375 23.5911 78.4517 23.6491 78.3534C23.6552 78.3386 23.6582 78.3227 23.6581 78.3067C23.658 78.2907 23.6547 78.2748 23.6484 78.2601C23.642 78.2454 23.6328 78.2321 23.6213 78.2209C23.6098 78.2098 23.5961 78.201 23.5811 78.1952C23.5019 78.1463 23.3509 78.1651 23.1283 78.248C22.7847 78.3809 22.4484 78.5317 22.1208 78.7L22.0302 78.5455C22.3811 78.3647 22.6717 78.2216 22.9094 78.1199C23.1236 78.0209 23.3512 77.9536 23.5849 77.9203C23.7662 77.8892 23.9527 77.9211 24.1132 78.0107C24.201 78.0621 24.2668 78.1438 24.2981 78.2404C24.32 78.3526 24.297 78.4689 24.234 78.5644C24.1312 78.732 23.995 78.8769 23.834 78.99L22.7736 79.8337L22.8264 79.8865C23.3711 79.5465 23.9489 79.2625 24.5509 79.039C24.731 78.9456 24.9292 78.8925 25.1319 78.8834C25.3346 78.8743 25.5368 78.9094 25.7245 78.9862ZM25.3132 79.2424C25.1628 79.1898 25.0033 79.1684 24.8443 79.1794C24.6854 79.1904 24.5304 79.2336 24.3887 79.3064C23.9033 79.4826 23.4347 79.7019 22.9887 79.9618C22.5538 80.2048 22.1342 80.474 21.7321 80.7679C21.6517 80.9206 21.6289 81.097 21.6679 81.2651C21.6861 81.3431 21.7198 81.4167 21.7672 81.4814C21.8145 81.5462 21.8744 81.6007 21.9434 81.6417C22.1152 81.7154 22.3009 81.7512 22.4878 81.7467C22.6747 81.7421 22.8584 81.6973 23.0264 81.6153C23.5358 81.4342 24.0162 81.1805 24.4528 80.862C24.8446 80.6037 25.1828 80.2725 25.4491 79.8865C25.4883 79.8329 25.5155 79.7715 25.5285 79.7065C25.5415 79.6414 25.5402 79.5743 25.5245 79.5098C25.5086 79.4535 25.4818 79.401 25.4456 79.3551C25.4093 79.3092 25.3643 79.2709 25.3132 79.2424Z" fill="#723231"/>
<path d="M20.1585 75.1292C20.3331 75.2644 20.4643 75.4477 20.5358 75.6565C20.598 75.8526 20.598 76.0631 20.5358 76.2592C20.4703 76.4814 20.3555 76.6861 20.2 76.858C19.885 77.2152 19.4996 77.5037 19.0679 77.7055C18.6074 77.9382 18.1039 78.0741 17.5887 78.1048C17.1439 78.1442 16.7013 78.0091 16.3547 77.7281C16.1828 77.5903 16.0522 77.4079 15.9773 77.2008C15.9168 77.0045 15.9168 76.7945 15.9773 76.5981C16.046 76.3772 16.1604 76.1732 16.3132 75.9993C16.6296 75.6446 17.0147 75.3576 17.4453 75.1555C17.9059 74.919 18.4111 74.7817 18.9283 74.7525C19.3718 74.7141 19.8128 74.8492 20.1585 75.1292ZM20.0038 75.2949C19.8556 75.1997 19.6866 75.1418 19.5111 75.126C19.3357 75.1103 19.159 75.1372 18.9962 75.2045C18.502 75.3415 18.0295 75.5469 17.5924 75.8147C17.2038 76.0316 16.8512 76.3073 16.5472 76.632C16.4109 76.7714 16.3201 76.9487 16.2868 77.1405C16.281 77.223 16.2967 77.3056 16.3324 77.3802C16.3682 77.4548 16.4226 77.5189 16.4906 77.5662C16.6391 77.6604 16.8083 77.7176 16.9837 77.7326C17.1591 77.7477 17.3356 77.7203 17.4981 77.6528C17.992 77.5186 18.4646 77.3158 18.9019 77.0501C19.2888 76.8323 19.64 76.5567 19.9434 76.2328C20.0823 76.0928 20.1757 75.9143 20.2113 75.7205C20.2152 75.6379 20.1983 75.5556 20.162 75.4812C20.1257 75.4069 20.0713 75.3428 20.0038 75.2949Z" fill="#723231"/>
<path d="M17.7887 73.0086C17.8349 73.0495 17.8725 73.0992 17.899 73.1549C17.9256 73.2105 17.9407 73.271 17.9434 73.3326C17.939 73.4601 17.8865 73.5812 17.7963 73.6715C17.6797 73.8025 17.537 73.9077 17.3774 73.9804L13.2491 76.086L12.7472 75.7093L17.0529 73.5133C17.1565 73.4717 17.2439 73.3977 17.3019 73.3024C17.3164 73.2655 17.3183 73.2249 17.3074 73.1868C17.2965 73.1487 17.2734 73.1152 17.2415 73.0915C17.1759 73.0456 17.1014 73.0139 17.0228 72.9983C16.9442 72.9828 16.8632 72.9837 16.7849 73.0011C16.4097 73.0475 16.0379 73.118 15.6717 73.212L15.6113 73.0388C15.9621 72.9468 16.3172 72.8726 16.6755 72.8165C16.903 72.7806 17.1348 72.7806 17.3623 72.8165C17.5204 72.8367 17.6689 72.9036 17.7887 73.0086ZM15.034 76.101L14.8264 76.199L13.0642 74.4399L13.2679 74.3345L15.034 76.101Z" fill="#723231"/>
<path d="M16.4566 71.9013L10.6604 74.2706L11.1132 74.9749L10.9358 75.0427C10.7509 74.8242 10.5585 74.6209 10.4 74.4401C10.2415 74.2593 10.0679 74.0935 9.90942 73.9466L12.7698 72.7865L14.3057 72.2027L14.2755 72.1499C13.7438 72.2778 13.2042 72.3709 12.6604 72.4287C12.2837 72.4776 11.9018 72.4674 11.5283 72.3985C11.2782 72.3525 11.0509 72.2238 10.883 72.0332C10.7705 71.9138 10.7071 71.7564 10.7057 71.5925C10.7103 71.5139 10.7308 71.4371 10.7658 71.3665C10.8008 71.296 10.8496 71.2332 10.9094 71.1819C11.0669 71.0356 11.2551 70.9262 11.4604 70.8618L13.8528 69.9916C13.9644 69.964 14.0671 69.9083 14.1509 69.8297C14.1729 69.8054 14.1851 69.7739 14.1851 69.7412C14.1851 69.7085 14.1729 69.6769 14.1509 69.6527C14.0981 69.5849 13.9509 69.5547 13.7207 69.5547C13.3489 69.5733 12.9785 69.6136 12.6113 69.6753L12.5774 69.502C13.0251 69.4342 13.3874 69.3928 13.6641 69.3777C13.8862 69.3564 14.1101 69.3691 14.3283 69.4154C14.4747 69.4537 14.6062 69.535 14.7057 69.6489C14.7447 69.6897 14.7747 69.7384 14.7936 69.7916C14.8124 69.8448 14.8198 69.9015 14.8151 69.9577C14.7907 70.0776 14.722 70.1838 14.6226 70.2553C14.4774 70.3622 14.3172 70.4473 14.1472 70.5077L11.6717 71.4004C11.5207 71.4432 11.388 71.5345 11.2943 71.6603C11.2616 71.7062 11.2467 71.7624 11.2522 71.8185C11.2578 71.8745 11.2835 71.9267 11.3245 71.9654C11.4453 72.1123 11.7547 72.1914 12.2453 72.1951C12.8425 72.1916 13.4379 72.1285 14.0226 72.0068C14.7221 71.8713 15.4107 71.685 16.083 71.4493L16.4566 71.9013Z" fill="#723231"/>
<path d="M12.9925 67.3851C13.1083 67.5487 13.1845 67.737 13.2151 67.935C13.2413 68.1241 13.2111 68.3166 13.1283 68.4887C13.0317 68.6792 12.8857 68.8404 12.7057 68.9557C12.2941 69.2147 11.8348 69.3889 11.3547 69.468C10.8166 69.5807 10.2618 69.5884 9.72077 69.4906C9.49229 69.4617 9.2721 69.3866 9.07359 69.2701C8.87508 69.1535 8.7024 68.9979 8.56605 68.8126C8.43186 68.6304 8.36037 68.4097 8.36228 68.1836C8.36575 68.0822 8.39405 67.9832 8.4447 67.8952C8.49535 67.8072 8.56681 67.7329 8.65284 67.6789C8.8417 67.5705 9.05574 67.5134 9.2736 67.5134C9.49145 67.5134 9.7055 67.5705 9.89436 67.6789C10.5513 68.002 11.1434 68.4424 11.6415 68.9784L11.4868 69.1177C11.1796 68.7934 10.8245 68.5178 10.434 68.3004C10.161 68.1493 9.85845 68.0593 9.54719 68.0367C9.32263 68.0202 9.0988 68.077 8.90945 68.1987C8.81688 68.2551 8.75042 68.3458 8.72454 68.451C8.71041 68.555 8.73749 68.6604 8.80001 68.7448C8.91095 68.8769 9.05234 68.9802 9.21205 69.0458C9.37176 69.1114 9.54503 69.1374 9.717 69.1215C10.2015 69.1248 10.6836 69.055 11.1472 68.9143C11.5591 68.8112 11.9525 68.6447 12.3132 68.4209C12.489 68.3147 12.6223 68.151 12.6906 67.9576C12.7133 67.869 12.7152 67.7763 12.6963 67.6868C12.6773 67.5973 12.6379 67.5134 12.5811 67.4416C12.4206 67.2244 12.1805 67.0794 11.9132 67.0385C11.5392 66.9745 11.158 66.9644 10.7811 67.0084L10.751 66.8276C11.197 66.7623 11.6508 66.7699 12.0944 66.8502C12.273 66.8725 12.445 66.9316 12.5996 67.0237C12.7542 67.1157 12.8879 67.2388 12.9925 67.3851Z" fill="#723231"/>
<path d="M7.99247 66.2062C7.87727 66.2219 7.76669 66.2617 7.66795 66.323C7.65522 66.3316 7.64439 66.3427 7.63612 66.3557C7.62785 66.3686 7.6223 66.3831 7.61983 66.3983C7.61736 66.4135 7.61801 66.429 7.62174 66.4439C7.62547 66.4588 7.63221 66.4727 7.64153 66.4849C7.68682 66.5603 7.82267 66.6206 8.04908 66.6582C8.42447 66.7086 8.80245 66.7376 9.18116 66.7448V66.9219C8.81789 66.92 8.45503 66.8973 8.09436 66.8541C7.87209 66.8319 7.65449 66.776 7.44908 66.6883C7.30701 66.6241 7.18836 66.5175 7.10946 66.3833C7.05446 66.2986 7.03294 66.1966 7.04908 66.097C7.0846 65.989 7.16022 65.8987 7.2604 65.8446C7.43148 65.7483 7.62004 65.6868 7.81512 65.6638L9.07927 65.4416V65.3738C8.57668 65.4073 8.07242 65.4073 7.56983 65.3738C7.26752 65.3609 6.96873 65.3038 6.68304 65.2043C6.5052 65.1414 6.3537 65.0207 6.25285 64.8615C6.22123 64.8046 6.19713 64.7438 6.18115 64.6807L6.84531 64.4849C6.85154 64.584 6.87991 64.6805 6.92833 64.7674C6.99298 64.8668 7.07773 64.9517 7.17715 65.0166C7.27658 65.0814 7.38848 65.1248 7.50568 65.144C7.93672 65.2183 8.37549 65.2373 8.81134 65.2005C9.40002 65.1742 10.2378 65.0913 11.317 64.9557L11.6113 65.468L7.99247 66.2062Z" fill="#723231"/>
<path d="M9.23019 60.7334C9.31968 60.9237 9.35743 61.1342 9.33963 61.3436C9.32246 61.5157 9.24651 61.6766 9.12453 61.7994C8.98972 61.9221 8.81918 61.9987 8.63774 62.0179L8.36227 61.5056C8.58064 61.4844 8.78541 61.3901 8.9434 61.2382C9.00427 61.1703 9.04213 61.085 9.05162 60.9943C9.0611 60.9037 9.04172 60.8124 8.99623 60.7334C8.96917 60.6576 8.92573 60.5886 8.869 60.5313C8.81227 60.474 8.74363 60.4299 8.66793 60.402C8.49847 60.3526 8.31657 60.3687 8.1585 60.4472C7.99672 60.5176 7.84856 60.6157 7.72076 60.7372C7.58114 60.8653 7.4151 61.0348 7.21887 61.2495C7.02264 61.4642 6.8151 61.6713 6.6717 61.8032C6.53332 61.9285 6.37524 62.0303 6.20378 62.1045C6.02485 62.1833 5.82854 62.2144 5.63397 62.1949C5.4405 62.1755 5.25563 62.1053 5.09812 61.9915C4.93096 61.8647 4.80071 61.6956 4.72076 61.5018C4.61036 61.2754 4.59013 61.0156 4.66416 60.7749C4.70144 60.6679 4.76311 60.5711 4.84432 60.492C4.92552 60.4129 5.02403 60.3537 5.13208 60.3191L5.40755 60.8314C5.2427 60.8781 5.09136 60.9633 4.96605 61.08C4.92942 61.1352 4.90804 61.1992 4.90406 61.2653C4.90009 61.3314 4.91365 61.3974 4.9434 61.4566C4.96669 61.5253 5.00529 61.5877 5.05627 61.6392C5.10726 61.6908 5.16931 61.7301 5.23774 61.7542C5.38957 61.7941 5.55081 61.7766 5.69057 61.7052C5.83618 61.6411 5.97008 61.5533 6.0868 61.4453C6.2151 61.3248 6.37359 61.1628 6.55849 60.9519C6.73458 60.7503 6.92099 60.558 7.11699 60.3756C7.26539 60.24 7.43489 60.1293 7.61888 60.0479C7.81436 59.9662 8.02632 59.9313 8.23774 59.9462C8.44907 59.9642 8.65139 60.0398 8.82264 60.1647C9.01053 60.3111 9.15205 60.5086 9.23019 60.7334Z" fill="#723231"/>
<path d="M8.27171 58.3337C8.29837 58.393 8.31215 58.4572 8.31215 58.5221C8.31215 58.587 8.29837 58.6512 8.27171 58.7104C8.21217 58.8214 8.11429 58.9071 7.99624 58.9515C7.83301 59.0161 7.65863 59.0481 7.48303 59.0456L2.84907 59.1473L2.56982 58.5748L7.40001 58.4693C7.51196 58.4776 7.62348 58.4484 7.71699 58.3865C7.74645 58.3601 7.76646 58.3249 7.77395 58.2861C7.78145 58.2473 7.77602 58.2072 7.7585 58.1718C7.72077 58.0701 7.59624 57.9759 7.38114 57.893C7.0236 57.77 6.65795 57.6718 6.28681 57.5992L6.30567 57.4185C6.66231 57.486 7.01503 57.5727 7.36228 57.6784C7.58265 57.7435 7.79146 57.8426 7.98114 57.9722C8.1102 58.0629 8.21093 58.1883 8.27171 58.3337ZM4.43775 59.9157H4.20756L3.39246 57.5653H3.61888L4.43775 59.9157Z" fill="#723231"/>
<path d="M7.34342 55.4375C7.40391 55.6479 7.40391 55.8711 7.34342 56.0815C7.28284 56.2776 7.16449 56.4508 7.0038 56.5787C6.81987 56.7219 6.60768 56.8246 6.38116 56.8801C5.9131 56.9885 5.42789 57.0013 4.95474 56.9177C4.44498 56.8442 3.95569 56.6673 3.517 56.3979C3.12777 56.1777 2.84055 55.8139 2.717 55.3847C2.65651 55.1743 2.65651 54.9511 2.717 54.7406C2.77868 54.5462 2.89689 54.3744 3.05662 54.2472C3.24055 54.104 3.45275 54.0013 3.67927 53.9459C4.14626 53.8391 4.6299 53.8262 5.10191 53.9082C5.61297 53.9812 6.1036 54.1581 6.54342 54.428C6.93162 54.6477 7.21863 55.0098 7.34342 55.4375ZM7.12078 55.4864C7.05285 55.219 6.79247 55.0043 6.34719 54.8386C5.86152 54.6644 5.35306 54.5616 4.83776 54.5335C4.39522 54.488 3.94827 54.5122 3.51323 54.605C3.32157 54.6414 3.14534 54.7346 3.00757 54.8725C2.95551 54.9371 2.92117 55.0141 2.90794 55.096C2.89471 55.1779 2.90303 55.2618 2.9321 55.3395C3.00002 55.607 3.2604 55.8217 3.70568 55.9874C4.19147 56.1612 4.69987 56.2639 5.21512 56.2925C5.65641 56.3378 6.10209 56.3136 6.53587 56.2209C6.72999 56.1853 6.90885 56.0921 7.04908 55.9535C7.09865 55.8874 7.13026 55.8097 7.14084 55.7279C7.15142 55.646 7.14061 55.5629 7.10946 55.4864H7.12078Z" fill="#723231"/>
<path d="M2.9585 52.262C2.84541 52.237 2.7282 52.237 2.61511 52.262C2.58575 52.2708 2.56101 52.2907 2.54619 52.3174C2.53137 52.3442 2.52767 52.3757 2.53586 52.4052C2.53586 52.4918 2.65662 52.5935 2.86039 52.7065C3.19003 52.883 3.5303 53.039 3.87926 53.1735L3.81888 53.3393C3.47915 53.2117 3.14658 53.0658 2.82265 52.9023C2.62269 52.8043 2.43832 52.6774 2.27549 52.5257C2.16697 52.4244 2.09084 52.2933 2.05662 52.149C2.03526 52.0513 2.05142 51.9491 2.1019 51.8628C2.13547 51.8175 2.17784 51.7796 2.22647 51.7511C2.27511 51.7226 2.329 51.7042 2.38492 51.697C2.57411 51.6592 2.76882 51.6579 2.9585 51.6933L4.22266 51.9193V51.8477C3.7421 51.716 3.2717 51.5498 2.81511 51.3505C2.53568 51.2368 2.27493 51.0819 2.04153 50.891C1.89538 50.7709 1.79429 50.6049 1.75473 50.4201C1.74533 50.3564 1.74533 50.2917 1.75473 50.228L2.44907 50.2695C2.41914 50.3644 2.4114 50.4649 2.42643 50.5633C2.45438 50.6774 2.50569 50.7845 2.57713 50.8778C2.64857 50.9712 2.73859 51.0487 2.84152 51.1057C3.22124 51.3238 3.62694 51.4934 4.04907 51.6104C4.61511 51.7862 5.42769 51.9958 6.48681 52.2394L6.58492 52.8195L2.9585 52.262Z" fill="#723231"/>
<path d="M0.882984 48.5257C0.890494 48.5736 0.887701 48.6227 0.874796 48.6695C0.86189 48.7163 0.839165 48.7599 0.808124 48.7973C0.777083 48.8346 0.738435 48.865 0.694742 48.8864C0.651049 48.9077 0.603311 48.9196 0.554684 48.9212C0.487348 48.9303 0.418823 48.925 0.353728 48.9055C0.288633 48.886 0.22848 48.8528 0.177325 48.8081C0.125796 48.7668 0.083187 48.7154 0.0520593 48.6571C0.0209317 48.5989 0.00192464 48.5349 -0.00381085 48.4692C-0.0109378 48.4212 -0.00790347 48.3723 0.00509682 48.3256C0.0180971 48.2788 0.0407786 48.2354 0.0716654 48.198C0.136697 48.1255 0.227298 48.0809 0.324495 48.0737C0.391831 48.0645 0.460355 48.0698 0.52545 48.0893C0.590545 48.1088 0.650698 48.142 0.701853 48.1867C0.753382 48.2281 0.795992 48.2794 0.827119 48.3377C0.858247 48.3959 0.877248 48.4599 0.882984 48.5257ZM6.166 49.279C6.17528 49.3345 6.17196 49.3915 6.15629 49.4456C6.14062 49.4997 6.11299 49.5496 6.07543 49.5916C5.98823 49.6755 5.87203 49.7227 5.75091 49.7234C5.57046 49.7314 5.38984 49.7124 5.21506 49.6669L2.52827 49.004C2.41769 48.9677 2.30071 48.9548 2.18487 48.9664C2.15285 48.9744 2.12533 48.9947 2.10835 49.023C2.09136 49.0512 2.08632 49.085 2.09431 49.117C2.09431 49.2036 2.20374 49.3091 2.39619 49.4409C2.71422 49.6375 3.04304 49.816 3.3811 49.9758L3.3094 50.1378C2.97745 49.9864 2.65486 49.8153 2.34336 49.6255C2.15147 49.512 1.97623 49.3726 1.82261 49.2112C1.71982 49.0978 1.65401 48.9559 1.63393 48.8044C1.62465 48.7488 1.62796 48.6919 1.64364 48.6378C1.65931 48.5837 1.68694 48.5338 1.72449 48.4918C1.76665 48.4498 1.81669 48.4166 1.87172 48.394C1.92676 48.3713 1.98573 48.3598 2.04525 48.3599C2.2232 48.352 2.40132 48.371 2.57355 48.4164L5.27166 49.0756C5.38011 49.1156 5.49669 49.1285 5.61128 49.1132C5.62665 49.1093 5.64109 49.1024 5.65377 49.0928C5.66645 49.0833 5.67712 49.0714 5.68518 49.0577C5.69324 49.0441 5.69853 49.029 5.70074 49.0133C5.70295 48.9976 5.70205 48.9817 5.69808 48.9664C5.69808 48.8797 5.58865 48.7742 5.39619 48.6424C5.07816 48.4459 4.74934 48.2673 4.41129 48.1076L4.46789 47.9268C4.80009 48.0787 5.12383 48.2485 5.4377 48.4353C5.63049 48.5491 5.80694 48.6885 5.96223 48.8496C6.07268 48.9665 6.14276 49.1157 6.16223 49.2752L6.166 49.279Z" fill="#723231"/>
<path d="M5.95096 46.3485C5.95832 46.5496 5.91825 46.7496 5.83398 46.9323C5.75303 47.1063 5.62156 47.252 5.45662 47.3504C5.27082 47.4575 5.05985 47.5134 4.84531 47.5124C4.36023 47.5038 3.88174 47.3988 3.43776 47.2035C2.92482 47.0059 2.45467 46.7118 2.05285 46.3372C1.877 46.1878 1.73345 46.0042 1.63095 45.7976C1.52844 45.5911 1.46913 45.3658 1.45663 45.1356C1.44259 44.9102 1.50362 44.6864 1.63021 44.4991C1.68821 44.4163 1.76567 44.349 1.8558 44.303C1.94593 44.257 2.04599 44.2338 2.14719 44.2354C2.36511 44.2492 2.57559 44.3197 2.75768 44.44C2.93976 44.5603 3.08708 44.7261 3.18493 44.9209C3.55682 45.5496 3.81246 46.2398 3.93965 46.9587L3.7321 46.9888C3.6509 46.551 3.5033 46.128 3.29436 45.7345C3.14748 45.4594 2.94282 45.2191 2.69436 45.0302C2.51598 44.8956 2.29908 44.8217 2.07549 44.8193C1.9669 44.8162 1.86137 44.8554 1.78116 44.9285C1.71151 45.0085 1.67626 45.1127 1.68304 45.2185C1.70619 45.3882 1.77011 45.5498 1.86932 45.6894C1.96854 45.8291 2.10012 45.9428 2.25285 46.0208C2.65897 46.2852 3.10129 46.4894 3.56606 46.6272C3.9677 46.7625 4.38757 46.8361 4.81134 46.8457C5.01904 46.8545 5.22329 46.7906 5.3887 46.6649C5.45648 46.6038 5.50889 46.5277 5.54167 46.4426C5.57445 46.3575 5.58669 46.2659 5.57738 46.1752C5.57066 46.0417 5.53714 45.9109 5.4788 45.7905C5.42046 45.6702 5.33849 45.5628 5.23776 45.4746C4.96333 45.2173 4.65166 45.0028 4.31323 44.8381L4.3887 44.6686C4.80467 44.8564 5.18707 45.1109 5.52077 45.4219C5.65078 45.5399 5.75582 45.6827 5.8297 45.8418C5.90359 46.0009 5.94481 46.1732 5.95096 46.3485Z" fill="#723231"/>
<path d="M5.97737 43.3727C5.97542 43.5827 5.91675 43.7883 5.80756 43.9678C5.71603 44.1157 5.57603 44.2275 5.41133 44.2842C5.23641 44.334 5.05021 44.3274 4.87926 44.2654L4.85662 43.6853C5.06317 43.7568 5.2878 43.7568 5.49435 43.6853C5.57677 43.6499 5.64632 43.5901 5.69356 43.514C5.74081 43.4379 5.76348 43.3491 5.7585 43.2597C5.76672 43.1791 5.75749 43.0977 5.73145 43.021C5.70541 42.9444 5.66316 42.8742 5.60756 42.8152C5.4773 42.6977 5.30765 42.6332 5.13209 42.6344C4.95592 42.6277 4.77987 42.6506 4.61134 42.7022C4.4302 42.7549 4.20379 42.8378 3.93209 42.9433C3.66039 43.0487 3.38492 43.1467 3.19624 43.1994C3.01756 43.2518 2.83125 43.2734 2.6453 43.2634C2.45024 43.2575 2.2602 43.2003 2.09436 43.0977C1.93341 42.9929 1.8032 42.8473 1.717 42.6758C1.62058 42.4903 1.57872 42.2814 1.59624 42.0732C1.59496 41.8219 1.68938 41.5796 1.86039 41.3952C1.94105 41.3151 2.03938 41.255 2.14751 41.2197C2.25563 41.1843 2.37055 41.1748 2.48303 41.1918L2.50567 41.7718C2.3372 41.7404 2.16354 41.7507 2.00002 41.802C1.93761 41.8338 1.88603 41.8833 1.85178 41.9443C1.81753 42.0053 1.80214 42.075 1.80756 42.1447C1.79825 42.2163 1.80529 42.2891 1.82817 42.3576C1.85104 42.4261 1.88915 42.4885 1.93964 42.5402C2.05917 42.6427 2.21229 42.6977 2.36983 42.6947C2.52809 42.7011 2.68631 42.6808 2.83775 42.6344C3.05563 42.5667 3.26978 42.4875 3.47926 42.3971C3.78115 42.2766 4.03398 42.1862 4.23398 42.1259C4.42695 42.0672 4.62879 42.043 4.8302 42.0543C5.0416 42.0641 5.24747 42.1248 5.4302 42.2314C5.61375 42.3398 5.76287 42.4978 5.86039 42.6871C5.96373 42.8999 6.0043 43.1377 5.97737 43.3727Z" fill="#723231"/>
<path d="M6.61133 36.4763L6.43774 36.3596L6.51321 35.9377L2.06793 30.4836L2.12076 30.3179L7.92076 31.429L8.10944 30.9921L8.28303 31.1089L7.63774 33.1843L7.46416 33.0675L7.65284 32.3142C7.64494 32.2392 7.61471 32.1684 7.56605 32.1108C7.51895 32.0535 7.45119 32.017 7.37737 32.0091L2.87171 31.09L6.29812 35.2597C6.33473 35.3007 6.37813 35.3351 6.42642 35.3614C6.47299 35.3869 6.52442 35.4023 6.57736 35.4066C6.6217 35.4117 6.66629 35.3996 6.70189 35.3727L6.96982 34.6495L7.1434 34.7663L6.61133 36.4763ZM5.24152 34.1636L5.03774 33.9376L5.84529 31.3499L6.07171 31.4931L5.24152 34.1636Z" fill="#723231"/>
<path d="M9.78115 28.0424C9.76065 28.0951 9.7292 28.1427 9.68887 28.1824C9.64854 28.222 9.60025 28.2526 9.54719 28.2722C9.4886 28.2881 9.42743 28.2923 9.3672 28.2846C9.30697 28.2768 9.24887 28.2573 9.19625 28.227C9.03697 28.1416 8.89083 28.0337 8.76229 27.9068L6.89436 26.0574C6.79116 25.9368 6.65023 25.8546 6.49436 25.8239C6.43868 25.8147 6.38154 25.8255 6.33315 25.8545C6.28475 25.8835 6.24826 25.9287 6.23021 25.9821C6.17184 26.309 6.24067 26.6458 6.42266 26.9237C6.68782 27.4602 7.00239 27.9709 7.36229 28.4492C7.78307 29.0157 8.24333 29.5519 8.73965 30.0538L8.49813 30.5811L5.81512 28.0688C5.73599 27.9839 5.63945 27.9171 5.5321 27.8729C5.50207 27.8633 5.46946 27.8658 5.44126 27.8799C5.41305 27.894 5.39148 27.9185 5.38115 27.9483C5.34719 28.0273 5.38115 28.1667 5.47926 28.3739C5.65537 28.7056 5.84937 29.0274 6.0604 29.3381L5.917 29.4436C5.66417 29.0669 5.47172 28.7543 5.34342 28.5132C5.23375 28.3199 5.15241 28.1119 5.10191 27.8955C5.07002 27.7482 5.08317 27.5946 5.13964 27.4548C5.16608 27.379 5.21832 27.3149 5.28729 27.2736C5.35625 27.2323 5.43755 27.2164 5.517 27.2288C5.7557 27.2914 5.97084 27.4223 6.13587 27.6055L7.26795 28.6978L7.31323 28.6413C6.97895 28.2351 6.67379 27.8059 6.40002 27.3569C6.20375 27.0427 6.05498 26.7012 5.95851 26.3437C5.88725 26.0953 5.90053 25.8304 5.99625 25.5903C6.05742 25.4412 6.17358 25.3212 6.32078 25.2551C6.39427 25.2243 6.47316 25.2085 6.55285 25.2085C6.63254 25.2085 6.71144 25.2243 6.78493 25.2551C6.98203 25.334 7.15875 25.4564 7.30191 25.6129L9.11701 27.3983C9.18998 27.485 9.28332 27.5523 9.3887 27.5942C9.40456 27.5988 9.42117 27.6002 9.43757 27.5983C9.45397 27.5964 9.46983 27.5912 9.48422 27.5832C9.49862 27.5751 9.51126 27.5643 9.52143 27.5513C9.53159 27.5383 9.53906 27.5235 9.54342 27.5076C9.58115 27.4285 9.54342 27.2853 9.44531 27.0782C9.27204 26.7477 9.07663 26.4294 8.8604 26.1252L9.00757 26.0197C9.25663 26.3964 9.44908 26.6977 9.58116 26.9426C9.69487 27.137 9.77762 27.348 9.82644 27.5678C9.86771 27.7264 9.85168 27.8945 9.78115 28.0424Z" fill="#723231"/>
<path d="M10.9095 25.8464C10.8312 25.9812 10.7227 26.0959 10.5925 26.1816C10.472 26.262 10.3299 26.304 10.1849 26.3022C10.025 26.296 9.8698 26.2465 9.73588 26.1591C9.29354 25.859 8.92988 25.4572 8.67549 24.9876C8.35081 24.4622 8.11495 23.887 7.97738 23.2851C7.83377 22.8403 7.86756 22.3573 8.07172 21.9367C8.20631 21.7014 8.41634 21.5183 8.66795 21.4169L7.39248 19.9441L6.87172 20.6033L6.74719 20.4564C6.89059 20.2228 7.01889 19.9968 7.12455 19.7784C7.23021 19.5599 7.34719 19.3414 7.44908 19.1343L11.283 23.5488C11.3501 23.6403 11.4364 23.7162 11.5359 23.771C11.5505 23.7772 11.5662 23.7805 11.5821 23.7806C11.598 23.7808 11.6137 23.7778 11.6284 23.7718C11.6431 23.7659 11.6566 23.7571 11.6679 23.7459C11.6792 23.7348 11.6882 23.7216 11.6944 23.707C11.7434 23.6279 11.7246 23.4734 11.6415 23.2512C11.5585 23.029 11.4038 22.6937 11.1812 22.2493L11.3359 22.1589C11.517 22.5054 11.6604 22.7992 11.7661 23.0365C11.8646 23.2483 11.9331 23.4726 11.9698 23.7032C12.0016 23.8854 11.9696 24.0729 11.8793 24.2343C11.8306 24.3236 11.7496 24.3909 11.6529 24.4226C11.5405 24.4449 11.4238 24.4219 11.3283 24.3586C11.1605 24.256 11.0143 24.1217 10.8981 23.9631L10.0453 22.9084L9.99625 22.9574C10.3404 23.4989 10.6275 24.0745 10.8529 24.675C11.0529 25.1948 11.068 25.5865 10.9095 25.8464ZM10.6491 25.4396C10.7018 25.2894 10.723 25.1299 10.7113 24.9712C10.6996 24.8124 10.6553 24.6577 10.5812 24.5168C10.4025 24.0331 10.1802 23.5667 9.91701 23.1231C9.67133 22.69 9.39912 22.2723 9.10191 21.8726C8.94857 21.7933 8.77169 21.7719 8.6038 21.8124C8.5252 21.8307 8.45117 21.8649 8.38628 21.9128C8.32139 21.9608 8.267 22.0214 8.22644 22.0911C8.15325 22.2622 8.11804 22.4471 8.12325 22.633C8.12846 22.819 8.17396 23.0016 8.25663 23.1683C8.4363 23.6764 8.69065 24.155 9.01134 24.5884C9.27231 24.9768 9.60535 25.3118 9.99248 25.5752C10.0458 25.6151 10.1072 25.6428 10.1724 25.6565C10.2376 25.6701 10.305 25.6694 10.3698 25.6543C10.4285 25.6392 10.4835 25.6124 10.5314 25.5755C10.5794 25.5386 10.6195 25.4924 10.6491 25.4396Z" fill="#723231"/>
<path d="M14.7396 20.276C14.6023 20.4484 14.4192 20.5789 14.2113 20.6527C14.0162 20.715 13.8065 20.715 13.6113 20.6527C13.3872 20.5873 13.1799 20.4742 13.0038 20.3212C12.6466 20.0054 12.3565 19.6211 12.151 19.1912C11.9163 18.7317 11.7777 18.2294 11.7434 17.7147C11.7019 17.2706 11.8375 16.828 12.1208 16.483C12.2552 16.3093 12.4375 16.1784 12.6453 16.1064C12.842 16.0459 13.0524 16.0459 13.2491 16.1064C13.4723 16.1732 13.6782 16.2876 13.8529 16.4416C14.2111 16.7565 14.5013 17.141 14.7057 17.5716C14.9427 18.0304 15.0827 18.533 15.117 19.0481C15.1562 19.4908 15.0209 19.9314 14.7396 20.276ZM14.5698 20.1216C14.6646 19.9733 14.7217 19.8043 14.7361 19.629C14.7506 19.4538 14.722 19.2776 14.6529 19.1159C14.5151 18.6234 14.308 18.1529 14.0378 17.7185C13.818 17.3313 13.5392 16.9805 13.2113 16.6789C13.0706 16.5452 12.8933 16.4561 12.7019 16.4227C12.6191 16.4188 12.5367 16.4358 12.4622 16.472C12.3877 16.5082 12.3235 16.5625 12.2755 16.6299C12.1825 16.7789 12.1265 16.9478 12.1121 17.1227C12.0977 17.2976 12.1252 17.4735 12.1925 17.6356C12.3312 18.1278 12.5382 18.5981 12.8076 19.033C13.0259 19.4191 13.3034 19.7686 13.6302 20.0689C13.7729 20.2055 13.9527 20.2972 14.1472 20.3325C14.2299 20.3368 14.3123 20.3196 14.3864 20.2827C14.4604 20.2457 14.5237 20.1902 14.5698 20.1216Z" fill="#723231"/>
<path d="M13.7434 15.1571L13.6415 14.9499L15.3962 13.1834L15.5019 13.383L13.7434 15.1571ZM16.8528 17.8917C16.8123 17.9383 16.7625 17.9761 16.7067 18.0027C16.6508 18.0293 16.5901 18.0441 16.5283 18.0461C16.402 18.0417 16.2815 17.9922 16.1886 17.9067C16.0601 17.7871 15.9541 17.6455 15.8754 17.4886L13.7471 13.3792L14.1245 12.8745L16.3471 17.1609C16.3909 17.2633 16.4663 17.3491 16.5622 17.4058C16.5989 17.42 16.6392 17.4222 16.6772 17.4121C16.7152 17.4019 16.7489 17.3799 16.7736 17.3493C16.8178 17.2822 16.8482 17.2071 16.8631 17.1282C16.878 17.0493 16.8771 16.9683 16.8603 16.8897C16.8146 16.5083 16.7415 16.1307 16.6415 15.7598L16.8151 15.6995C16.9106 16.0492 16.9875 16.4038 17.0453 16.7617C17.081 16.9888 17.081 17.2201 17.0453 17.4472C17.0302 17.6121 16.9628 17.7678 16.8528 17.8917Z" fill="#723231"/>
<path d="M17.9472 16.5692L15.5396 10.795L14.834 11.2507L14.7623 11.0737C14.9849 10.8891 15.1849 10.697 15.366 10.5388C15.5472 10.3806 15.7094 10.2036 15.8604 10.0454L17.0566 12.893L17.6491 14.4222L17.7019 14.3921C17.5707 13.8615 17.4736 13.323 17.4113 12.78C17.3614 12.4042 17.3703 12.023 17.4377 11.65C17.4753 11.3993 17.5963 11.1684 17.7811 10.9946C17.9 10.8834 18.056 10.8204 18.2189 10.8176C18.3781 10.8271 18.5272 10.8988 18.634 11.0172C18.7802 11.1753 18.8909 11.3628 18.9585 11.5671L19.8453 13.9514C19.8737 14.0614 19.9295 14.1625 20.0075 14.2452C20.0318 14.2672 20.0634 14.2793 20.0962 14.2793C20.129 14.2793 20.1606 14.2672 20.1849 14.2452C20.2491 14.1887 20.283 14.0456 20.2792 13.8158C20.261 13.4443 20.2181 13.0743 20.1509 12.7084L20.3283 12.6708C20.3962 13.119 20.4415 13.4844 20.4604 13.7593C20.4798 13.9797 20.4671 14.2017 20.4226 14.4185C20.3866 14.5647 20.3062 14.6963 20.1925 14.7951C20.1516 14.8342 20.1028 14.8641 20.0495 14.8829C19.9961 14.9017 19.9394 14.909 19.883 14.9044C19.8229 14.8942 19.7654 14.872 19.7142 14.839C19.6629 14.8059 19.6189 14.7628 19.5849 14.7123C19.475 14.5712 19.3884 14.4136 19.3283 14.2452L18.4302 11.7894C18.386 11.6392 18.2948 11.5072 18.1698 11.4127C18.1227 11.3813 18.0661 11.3671 18.0097 11.3726C17.9533 11.3781 17.9005 11.4029 17.8604 11.4428C17.7132 11.5671 17.6415 11.876 17.6377 12.3657C17.6439 12.961 17.7109 13.5542 17.8377 14.136C17.9769 14.8345 18.1673 15.5219 18.4076 16.1926L17.9472 16.5692Z" fill="#723231"/>
<path d="M22.4603 13.074C22.2973 13.1919 22.1084 13.2694 21.9094 13.3C21.7204 13.3275 21.5274 13.2986 21.3547 13.2171C21.1634 13.1198 21.0008 12.9744 20.883 12.7952C20.6216 12.3864 20.4458 11.929 20.366 11.4505C20.2495 10.9141 20.238 10.3603 20.332 9.81957C20.3601 9.59115 20.4345 9.37083 20.5506 9.17202C20.6667 8.97322 20.8222 8.80011 21.0075 8.66323C21.1891 8.52966 21.4084 8.45711 21.6339 8.45605C21.7355 8.45952 21.8347 8.48777 21.9229 8.53832C22.011 8.58888 22.0854 8.66022 22.1396 8.74609C22.2486 8.93448 22.3059 9.14817 22.3059 9.3657C22.3059 9.58323 22.2486 9.79692 22.1396 9.98531C21.8171 10.6421 21.3787 11.2354 20.8453 11.7368L20.7056 11.5786C21.0307 11.2725 21.3046 10.9164 21.517 10.5239C21.6691 10.2521 21.758 9.94958 21.7773 9.63878C21.7914 9.41554 21.7332 9.1937 21.6113 9.00599C21.5848 8.95895 21.5486 8.91813 21.505 8.88628C21.4613 8.85444 21.4114 8.83232 21.3585 8.82142C21.3066 8.81345 21.2536 8.81636 21.2029 8.82998C21.1523 8.8436 21.105 8.86763 21.0641 8.90053C20.9344 9.01258 20.834 9.15447 20.7715 9.31394C20.7091 9.47341 20.6865 9.64567 20.7056 9.81582C20.7072 10.2996 20.7797 10.7805 20.9207 11.2434C21.0276 11.6522 21.1969 12.0422 21.4226 12.3997C21.5299 12.5758 21.6954 12.709 21.8905 12.7764C21.979 12.7991 22.0715 12.8007 22.1607 12.7811C22.2498 12.7615 22.3331 12.7211 22.4037 12.6634C22.512 12.584 22.6031 12.4838 22.6718 12.3686C22.7405 12.2535 22.7854 12.1257 22.8037 11.9929C22.8685 11.6196 22.8774 11.2388 22.8302 10.8629L23.0113 10.8328C23.0819 11.2783 23.0819 11.732 23.0113 12.1775C22.9869 12.3569 22.9253 12.5293 22.8304 12.6837C22.7356 12.838 22.6095 12.9709 22.4603 13.074Z" fill="#723231"/>
<path d="M23.6113 8.07947C23.5964 7.96428 23.5565 7.85374 23.4944 7.75554C23.4857 7.74284 23.4746 7.73203 23.4616 7.72377C23.4486 7.71551 23.4341 7.70998 23.4189 7.70752C23.4037 7.70505 23.3882 7.70569 23.3733 7.70941C23.3583 7.71314 23.3443 7.71986 23.3321 7.72917C23.2566 7.77437 23.2 7.90997 23.1623 8.13973C23.1112 8.51432 23.0835 8.89171 23.0793 9.26973H22.9019C22.9027 8.90596 22.9242 8.54253 22.9661 8.18117C22.9865 7.95939 23.0412 7.74211 23.1283 7.53707C23.1872 7.39745 23.2889 7.28008 23.4189 7.20185C23.4603 7.17322 23.5069 7.15314 23.5562 7.14279C23.6054 7.13244 23.6563 7.13202 23.7057 7.14158C23.7598 7.15701 23.8101 7.18336 23.8536 7.219C23.8971 7.25463 23.9328 7.29878 23.9585 7.34874C24.0581 7.51844 24.1211 7.70703 24.1434 7.90243L24.3736 9.16049L24.4415 9.14166C24.3977 8.64066 24.3889 8.13723 24.4151 7.63501C24.4257 7.33332 24.4817 7.03493 24.5812 6.74985C24.6414 6.57093 24.7613 6.41804 24.9208 6.31668C24.9772 6.28672 25.0367 6.26274 25.0981 6.24512L25.3019 6.90805C25.2026 6.91427 25.1059 6.94259 25.0189 6.99092C24.9194 7.05562 24.8345 7.14026 24.7695 7.23947C24.7046 7.33868 24.661 7.45029 24.6415 7.56721C24.569 7.99894 24.5513 8.43807 24.5887 8.87423C24.6227 9.46183 24.7095 10.298 24.8491 11.3753L24.3397 11.6691L23.6113 8.07947Z" fill="#723231"/>
<path d="M29.1132 9.28094C28.9234 9.37313 28.7121 9.4122 28.5019 9.39394C28.3292 9.38066 28.1671 9.30579 28.0453 9.18301C27.9205 9.04925 27.8424 8.8788 27.8226 8.69711L28.3358 8.41837C28.3562 8.63658 28.4508 8.84126 28.6038 8.99844C28.6727 9.05659 28.7581 9.09184 28.8481 9.09926C28.938 9.10669 29.0281 9.08593 29.1056 9.03988C29.1812 9.01285 29.2499 8.96945 29.3066 8.91279C29.3634 8.85613 29.4069 8.78762 29.4339 8.71218C29.4819 8.54253 29.4644 8.36108 29.3849 8.20369C29.3132 8.04285 29.215 7.89516 29.0943 7.76675C28.966 7.63116 28.7924 7.46542 28.5736 7.26956C28.3547 7.07369 28.1698 6.89289 28.0189 6.72716C27.8931 6.58984 27.7899 6.43347 27.7132 6.26387C27.636 6.08473 27.6036 5.88952 27.6189 5.6951C27.6394 5.49419 27.7146 5.3027 27.8363 5.14137C27.958 4.98005 28.1216 4.85502 28.3094 4.77981C28.5341 4.66772 28.793 4.64483 29.0339 4.71578C29.1417 4.75352 29.2394 4.81516 29.3198 4.89606C29.4002 4.97696 29.4612 5.07501 29.4981 5.18284L28.9849 5.46157C28.9386 5.29601 28.8517 5.14456 28.7321 5.02087C28.6757 4.985 28.6102 4.96594 28.5434 4.96594C28.4765 4.96594 28.4111 4.985 28.3547 5.02087C28.2862 5.0446 28.2239 5.08329 28.1724 5.13412C28.1208 5.18495 28.0812 5.24664 28.0566 5.31467C28.0214 5.46728 28.0414 5.62741 28.1132 5.76667C28.179 5.90548 28.2669 6.0327 28.3736 6.14334C28.4943 6.2714 28.6604 6.4296 28.8717 6.61416C29.0746 6.78887 29.2685 6.97367 29.4528 7.16786C29.5895 7.31399 29.7005 7.48207 29.7811 7.66505C29.866 7.86068 29.9023 8.07391 29.8868 8.28655C29.8712 8.49742 29.7967 8.69969 29.6717 8.87038C29.5281 9.05711 29.3344 9.19946 29.1132 9.28094Z" fill="#723231"/>
<path d="M29.8906 4.49381V4.26403L32.2415 3.43538V3.66514L29.8906 4.49381ZM31.4981 8.30941C31.4387 8.33579 31.3744 8.34941 31.3094 8.34941C31.2444 8.34941 31.1801 8.33579 31.1208 8.30941C31.0084 8.24962 30.9223 8.15027 30.8792 8.03067C30.8127 7.86946 30.7793 7.69654 30.7811 7.52218L30.6528 2.89676L31.2264 2.61426L31.3585 7.43555C31.3502 7.54729 31.3794 7.6586 31.4415 7.75194C31.4684 7.78072 31.5039 7.79998 31.5427 7.80677C31.5815 7.81357 31.6215 7.80755 31.6566 7.78961C31.7623 7.75195 31.8528 7.62765 31.9359 7.41295C32.0561 7.05444 32.1519 6.68825 32.2226 6.31686H32.4038C32.3393 6.67443 32.2537 7.02786 32.1472 7.37528C32.0854 7.59705 31.9872 7.80706 31.8566 7.99677C31.7708 8.13412 31.646 8.24293 31.4981 8.30941Z" fill="#723231"/>
<path d="M34.4 7.36749C34.1891 7.42788 33.9655 7.42788 33.7547 7.36749C33.5563 7.30903 33.3809 7.19059 33.2528 7.0285C33.1087 6.84677 33.0057 6.63602 32.9509 6.41076C32.8398 5.94543 32.8232 5.46261 32.9019 4.99074C32.9734 4.4796 33.1493 3.98856 33.4188 3.54812C33.5256 3.35474 33.6695 3.18432 33.8424 3.04664C34.0153 2.90896 34.2138 2.80673 34.4264 2.74582C34.6373 2.68564 34.8608 2.68564 35.0717 2.74582C35.2679 2.80671 35.4413 2.92478 35.5698 3.08483C35.7139 3.26656 35.8169 3.47729 35.8717 3.70255C35.9829 4.1666 35.9995 4.64821 35.9207 5.11881C35.8515 5.63113 35.6768 6.1236 35.4075 6.5652C35.19 6.95413 34.8282 7.24225 34.4 7.36749ZM34.3471 7.14526C34.6188 7.07369 34.8339 6.81756 34.9962 6.36933C35.1664 5.88386 35.2655 5.37641 35.2905 4.86268C35.332 4.41928 35.3053 3.97215 35.2113 3.53682C35.1742 3.34685 35.0808 3.17236 34.9434 3.03586C34.8783 2.98452 34.8009 2.95093 34.7189 2.93838C34.6369 2.92584 34.553 2.93477 34.4754 2.96429C34.2075 3.03586 33.9924 3.29199 33.8302 3.74022C33.6587 4.22551 33.5583 4.73296 33.532 5.24687C33.4867 5.6877 33.5135 6.13295 33.6113 6.5652C33.647 6.75896 33.7403 6.93748 33.8792 7.07745C33.9449 7.12784 34.0224 7.16054 34.1043 7.17241C34.1862 7.18428 34.2699 7.17494 34.3471 7.14526Z" fill="#723231"/>
<path d="M37.5623 2.97191C37.5875 2.85777 37.5875 2.73953 37.5623 2.62539C37.558 2.61046 37.5507 2.59653 37.5409 2.58444C37.5312 2.57235 37.5191 2.56232 37.5054 2.55496C37.4916 2.54759 37.4766 2.54303 37.4611 2.54154C37.4456 2.54005 37.43 2.54166 37.4151 2.54628C37.3283 2.54628 37.2302 2.67058 37.1132 2.87022C36.9401 3.20202 36.7876 3.54418 36.6566 3.89474L36.4868 3.83447C36.613 3.49405 36.7579 3.16083 36.9208 2.83632C37.0177 2.63485 37.145 2.44938 37.2981 2.28638C37.3996 2.17807 37.5309 2.10208 37.6755 2.06792C37.7276 2.05589 37.7816 2.05504 37.8341 2.06544C37.8865 2.07583 37.9361 2.09723 37.9797 2.12821C38.0232 2.15919 38.0596 2.19906 38.0866 2.24516C38.1135 2.29126 38.1303 2.34254 38.1359 2.39562C38.1664 2.58842 38.16 2.78525 38.117 2.97568L37.8981 4.23751H37.9698C38.0994 3.7573 38.2621 3.2866 38.4566 2.82878C38.5728 2.5568 38.7279 2.30306 38.917 2.07545C39.0358 1.92889 39.2007 1.82669 39.3849 1.78542C39.4489 1.77791 39.5135 1.77791 39.5774 1.78542L39.5434 2.47848C39.4466 2.45625 39.3459 2.45625 39.2491 2.47848C39.134 2.5057 39.0259 2.55661 38.9317 2.62796C38.8374 2.69931 38.7592 2.78952 38.7019 2.89281C38.4883 3.27463 38.321 3.68052 38.2038 4.1019C38.0302 4.6669 37.8252 5.47923 37.5887 6.53891L37.0076 6.64062L37.5623 2.97191Z" fill="#723231"/>
<path d="M40.5623 6.15474C40.5069 6.1645 40.4501 6.16179 40.3959 6.1468C40.3417 6.13181 40.2915 6.10492 40.2491 6.0681C40.1644 5.97965 40.1159 5.86274 40.1132 5.7404C40.1051 5.56153 40.1242 5.38246 40.1698 5.20931L40.8151 2.51993C40.8528 2.40983 40.8644 2.29251 40.8491 2.17717C40.8456 2.16156 40.8389 2.14683 40.8295 2.1339C40.8201 2.12097 40.8081 2.1101 40.7943 2.10198C40.7805 2.09386 40.7652 2.08865 40.7493 2.08668C40.7334 2.08471 40.7173 2.08602 40.7019 2.09053C40.6151 2.09053 40.5095 2.19976 40.3812 2.39186C40.1846 2.71013 40.0069 3.03966 39.8491 3.37873L39.683 3.30716C39.8344 2.97634 40.0044 2.6544 40.1925 2.3429C40.3041 2.14988 40.4426 1.97361 40.6038 1.81933C40.7174 1.71673 40.8595 1.65104 41.0113 1.631C41.0664 1.62073 41.1231 1.62284 41.1773 1.63717C41.2315 1.65151 41.2818 1.67771 41.3246 1.71387C41.41 1.80032 41.4587 1.91638 41.4604 2.0378C41.4683 2.21543 41.4493 2.39322 41.4038 2.56513L40.7585 5.26204C40.7214 5.37097 40.7098 5.48693 40.7245 5.60104C40.7285 5.61631 40.7354 5.63062 40.745 5.64313C40.7546 5.65564 40.7667 5.66608 40.7804 5.67383C40.7942 5.68157 40.8093 5.68645 40.825 5.68818C40.8407 5.68991 40.8566 5.68846 40.8717 5.68391C40.9585 5.68391 41.0642 5.57467 41.1925 5.38257C41.389 5.0643 41.5667 4.73478 41.7246 4.39571L41.8906 4.46728C41.7384 4.79887 41.5683 5.12202 41.3812 5.43531C41.2717 5.6309 41.133 5.80871 40.9698 5.96263C40.8578 6.06807 40.7151 6.13533 40.5623 6.15474ZM41.283 0.881445C41.235 0.889502 41.1858 0.887258 41.1387 0.87487C41.0916 0.862482 41.0476 0.840229 41.0098 0.80959C40.972 0.778952 40.9411 0.740633 40.9192 0.697171C40.8974 0.653708 40.885 0.606096 40.883 0.557508C40.8743 0.490586 40.8795 0.422581 40.8983 0.357762C40.9172 0.292943 40.9492 0.232711 40.9925 0.180844C41.0774 0.078246 41.1994 0.0132743 41.3321 5.32812e-05C41.3802 -0.00864562 41.4297 -0.0068647 41.477 0.00527195C41.5244 0.0174086 41.5686 0.0396086 41.6066 0.0703673C41.6446 0.101126 41.6755 0.139717 41.6971 0.183488C41.7188 0.227259 41.7307 0.275178 41.7321 0.323978C41.7411 0.390906 41.736 0.458963 41.7171 0.523817C41.6983 0.58867 41.6661 0.648895 41.6227 0.700642C41.5819 0.752579 41.5306 0.795245 41.472 0.825775C41.4134 0.856305 41.349 0.873996 41.283 0.877675V0.881445Z" fill="#723231"/>
<path d="M43.4868 5.9289C43.2858 5.93515 43.086 5.89655 42.9019 5.81591C42.7276 5.73511 42.5816 5.60387 42.483 5.43924C42.3741 5.25429 42.3167 5.04359 42.317 4.82904C42.3213 4.34433 42.4227 3.86539 42.6151 3.42032C42.8126 2.90896 43.1059 2.43982 43.4792 2.03797C43.6265 1.86094 43.8087 1.71606 44.0145 1.61237C44.2203 1.50869 44.4453 1.44842 44.6754 1.43531C44.9015 1.42073 45.1264 1.47881 45.317 1.60104C45.4007 1.65905 45.4687 1.73692 45.5148 1.82765C45.5609 1.91838 45.5837 2.01913 45.5811 2.12084C45.5692 2.3374 45.5005 2.54703 45.382 2.7288C45.2634 2.91057 45.0992 3.05811 44.9056 3.15666C44.276 3.52824 43.5845 3.78343 42.8641 3.90999L42.8339 3.70282C43.2723 3.62306 43.6952 3.47432 44.0868 3.26213C44.3619 3.11318 44.6024 2.90779 44.7924 2.65946C44.9253 2.47918 44.9979 2.26175 45 2.03797C45.0001 1.98621 44.9895 1.93497 44.9689 1.88746C44.9484 1.83995 44.9182 1.7972 44.8803 1.76185C44.8424 1.72651 44.7976 1.69933 44.7487 1.68203C44.6999 1.66473 44.6479 1.65768 44.5962 1.66131C44.4264 1.68508 44.2649 1.74958 44.1256 1.8493C43.9863 1.94901 43.8733 2.08096 43.7962 2.23383C43.5331 2.64047 43.3309 3.08334 43.1962 3.54839C43.0623 3.95073 42.991 4.37121 42.9849 4.79514C42.9766 5.00122 43.0407 5.20373 43.166 5.36768C43.2285 5.4347 43.3056 5.48652 43.3913 5.51917C43.477 5.55182 43.569 5.56442 43.6604 5.55601C43.9306 5.53603 44.1823 5.41172 44.3622 5.20947C44.6174 4.93511 44.8299 4.62404 44.9924 4.28665L45.1622 4.35821C44.9729 4.7728 44.7181 5.15432 44.4075 5.4882C44.2908 5.61866 44.1493 5.72477 43.9913 5.8004C43.8332 5.87604 43.6618 5.91971 43.4868 5.9289Z" fill="#723231"/>
<path d="M46.4717 5.91716C46.2608 5.91401 46.0542 5.85694 45.8717 5.75142C45.7268 5.66481 45.6152 5.53218 45.5547 5.37476C45.4966 5.20119 45.4966 5.01346 45.5547 4.83989L46.1358 4.81729C46.0639 5.02341 46.0639 5.24773 46.1358 5.45385C46.173 5.5354 46.2339 5.60384 46.3106 5.65022C46.3874 5.6966 46.4764 5.71874 46.566 5.71375C46.6464 5.72193 46.7277 5.71233 46.804 5.68564C46.8803 5.65895 46.9498 5.61582 47.0075 5.55932C47.1252 5.4293 47.1899 5.25998 47.1887 5.08473C47.194 4.90868 47.1698 4.73298 47.117 4.56493C47.0603 4.38414 46.9811 4.15813 46.8717 3.88693C46.7719 3.64817 46.685 3.40426 46.6113 3.15622C46.5567 2.97821 46.5325 2.7923 46.5396 2.60628C46.5466 2.41175 46.6038 2.22233 46.7056 2.05635C46.8087 1.89065 46.953 1.7544 47.1245 1.66086C47.3118 1.56472 47.522 1.52172 47.732 1.53656C47.982 1.53483 48.2234 1.6277 48.4075 1.79645C48.4874 1.87742 48.548 1.97539 48.5845 2.08302C48.6211 2.19065 48.6329 2.30515 48.6188 2.41795L48.0339 2.44432C48.0674 2.27628 48.057 2.10246 48.0037 1.93959C47.9698 1.87913 47.9197 1.8292 47.8591 1.7953C47.7985 1.76141 47.7298 1.74486 47.6603 1.74749C47.5878 1.73919 47.5143 1.74704 47.4451 1.77049C47.3759 1.79393 47.3128 1.8324 47.2603 1.88309C47.1606 2.0038 47.1071 2.156 47.1094 2.31248C47.1061 2.47056 47.1278 2.62819 47.1736 2.77955C47.2264 2.94528 47.3056 3.15621 47.4151 3.41987C47.5245 3.68354 47.6302 3.9698 47.6905 4.1732C47.7506 4.36561 47.7761 4.56707 47.766 4.76834C47.7571 4.98016 47.6976 5.18679 47.5924 5.37099C47.4828 5.55209 47.3264 5.70041 47.1396 5.80039C46.9314 5.89822 46.7008 5.93854 46.4717 5.91716Z" fill="#723231"/>
</g>
<defs>
<clipPath id="clip0_77_1058">
<rect width="90" height="90" fill="white"/>
</clipPath>
</defs>
</svg>
